<mxfile host="app.diagrams.net" modified="2024-04-01T17:53:50.726Z" agent="Mozilla/5.0 (X11; Linux x86_64; rv:124.0) Gecko/20100101 Firefox/124.0" etag="4BuyPtSLVSwK7rMQEl-f" version="24.2.1" type="device">
  <diagram name="Page-1" id="78F0wIkQDTFffreORxyL">
    <mxGraphModel dx="3056" dy="1094" grid="1" gridSize="10" guides="1" tooltips="1" connect="1" arrows="1" fold="1" page="1" pageScale="1" pageWidth="850" pageHeight="1100" math="0" shadow="0">
      <root>
        <mxCell id="0" />
        <mxCell id="1" parent="0" />
        <mxCell id="f36LNTUcsk6rT417hQk8-1" value="" style="whiteSpace=wrap;html=1;aspect=fixed;fillColor=#dae8fc;strokeColor=#6c8ebf;" parent="1" vertex="1">
          <mxGeometry x="-185" y="40" width="120" height="120" as="geometry" />
        </mxCell>
        <mxCell id="f36LNTUcsk6rT417hQk8-2" value="&lt;font style=&quot;font-size: 16px;&quot;&gt;&lt;b&gt;FSM&lt;/b&gt;&lt;/font&gt;" style="text;html=1;align=center;verticalAlign=middle;whiteSpace=wrap;rounded=0;" parent="1" vertex="1">
          <mxGeometry x="-155" y="50" width="60" height="30" as="geometry" />
        </mxCell>
        <mxCell id="f36LNTUcsk6rT417hQk8-9" value="CYCLE_EN" style="text;html=1;align=center;verticalAlign=middle;whiteSpace=wrap;rounded=0;" parent="1" vertex="1">
          <mxGeometry x="-65" y="45" width="70" height="20" as="geometry" />
        </mxCell>
        <mxCell id="f36LNTUcsk6rT417hQk8-10" value="BIT_EN" style="text;html=1;align=center;verticalAlign=middle;whiteSpace=wrap;rounded=0;" parent="1" vertex="1">
          <mxGeometry x="-65" y="80" width="50" height="20" as="geometry" />
        </mxCell>
        <mxCell id="f36LNTUcsk6rT417hQk8-11" value="&lt;font color=&quot;#009900&quot;&gt;DOUT_VLD&lt;/font&gt;" style="text;html=1;align=center;verticalAlign=middle;whiteSpace=wrap;rounded=0;fontStyle=1" parent="1" vertex="1">
          <mxGeometry x="-65" y="110" width="70" height="20" as="geometry" />
        </mxCell>
        <mxCell id="f36LNTUcsk6rT417hQk8-18" value="" style="endArrow=none;html=1;rounded=0;exitX=0;exitY=0.5;exitDx=0;exitDy=0;entryX=0.5;entryY=0;entryDx=0;entryDy=0;" parent="1" source="f36LNTUcsk6rT417hQk8-1" target="f36LNTUcsk6rT417hQk8-33" edge="1">
          <mxGeometry width="50" height="50" relative="1" as="geometry">
            <mxPoint x="175" y="420" as="sourcePoint" />
            <mxPoint x="415" y="100" as="targetPoint" />
            <Array as="points">
              <mxPoint x="-315" y="100" />
              <mxPoint x="-315" />
              <mxPoint x="770" />
            </Array>
          </mxGeometry>
        </mxCell>
        <mxCell id="f36LNTUcsk6rT417hQk8-21" value="" style="endArrow=none;html=1;rounded=0;entryX=0.008;entryY=0.675;entryDx=0;entryDy=0;entryPerimeter=0;" parent="1" target="f36LNTUcsk6rT417hQk8-1" edge="1">
          <mxGeometry width="50" height="50" relative="1" as="geometry">
            <mxPoint x="-260" y="121" as="sourcePoint" />
            <mxPoint x="225" y="370" as="targetPoint" />
          </mxGeometry>
        </mxCell>
        <mxCell id="f36LNTUcsk6rT417hQk8-22" value="" style="endArrow=none;html=1;rounded=0;entryX=0.5;entryY=0;entryDx=0;entryDy=0;" parent="1" source="f36LNTUcsk6rT417hQk8-30" target="f36LNTUcsk6rT417hQk8-20" edge="1">
          <mxGeometry width="50" height="50" relative="1" as="geometry">
            <mxPoint x="-205" y="120" as="sourcePoint" />
            <mxPoint x="-175" y="530" as="targetPoint" />
            <Array as="points">
              <mxPoint x="-200" y="675" />
            </Array>
          </mxGeometry>
        </mxCell>
        <mxCell id="f36LNTUcsk6rT417hQk8-24" value="&lt;font color=&quot;#990000&quot;&gt;DIN&lt;/font&gt;" style="text;html=1;align=center;verticalAlign=middle;whiteSpace=wrap;rounded=0;fontStyle=1" parent="1" vertex="1">
          <mxGeometry x="-225" y="110" width="40" height="10" as="geometry" />
        </mxCell>
        <mxCell id="f36LNTUcsk6rT417hQk8-19" value="" style="endArrow=none;html=1;rounded=0;exitX=0.918;exitY=0.528;exitDx=0;exitDy=0;entryX=0.5;entryY=1;entryDx=0;entryDy=0;exitPerimeter=0;" parent="1" source="f36LNTUcsk6rT417hQk8-20" target="f36LNTUcsk6rT417hQk8-33" edge="1">
          <mxGeometry width="50" height="50" relative="1" as="geometry">
            <mxPoint x="-105" y="370" as="sourcePoint" />
            <mxPoint x="415" y="270" as="targetPoint" />
            <Array as="points">
              <mxPoint x="-104" y="380" />
              <mxPoint x="-75" y="380" />
              <mxPoint x="-35" y="380" />
              <mxPoint x="15" y="380" />
              <mxPoint x="25" y="380" />
              <mxPoint x="45" y="380" />
              <mxPoint x="55" y="380" />
              <mxPoint x="155" y="380" />
              <mxPoint x="175" y="380" />
              <mxPoint x="185" y="380" />
              <mxPoint x="680" y="380" />
              <mxPoint x="770" y="380" />
            </Array>
          </mxGeometry>
        </mxCell>
        <mxCell id="f36LNTUcsk6rT417hQk8-28" value="" style="endArrow=none;html=1;rounded=0;entryX=0;entryY=0.75;entryDx=0;entryDy=0;entryPerimeter=0;exitX=1;exitY=0.5;exitDx=0;exitDy=0;" parent="1" source="f36LNTUcsk6rT417hQk8-30" target="f36LNTUcsk6rT417hQk8-27" edge="1">
          <mxGeometry width="50" height="50" relative="1" as="geometry">
            <mxPoint x="-205" y="420" as="sourcePoint" />
            <mxPoint x="-205" y="280" as="targetPoint" />
            <Array as="points">
              <mxPoint x="-95" y="335" />
              <mxPoint x="-45" y="335" />
              <mxPoint x="-45" y="310" />
            </Array>
          </mxGeometry>
        </mxCell>
        <mxCell id="f36LNTUcsk6rT417hQk8-32" value="" style="endArrow=none;html=1;rounded=0;entryX=0.5;entryY=0;entryDx=0;entryDy=0;exitX=0.623;exitY=1.15;exitDx=0;exitDy=0;exitPerimeter=0;" parent="1" source="f36LNTUcsk6rT417hQk8-24" target="f36LNTUcsk6rT417hQk8-30" edge="1">
          <mxGeometry width="50" height="50" relative="1" as="geometry">
            <mxPoint x="-205" y="120" as="sourcePoint" />
            <mxPoint x="-144" y="530" as="targetPoint" />
            <Array as="points" />
          </mxGeometry>
        </mxCell>
        <mxCell id="f36LNTUcsk6rT417hQk8-30" value="" style="shape=ellipse;fillColor=#000000;strokeColor=none;html=1;sketch=0;" parent="1" vertex="1">
          <mxGeometry x="-205" y="330" width="10" height="10" as="geometry" />
        </mxCell>
        <mxCell id="f36LNTUcsk6rT417hQk8-33" value="" style="shape=ellipse;fillColor=#000000;strokeColor=none;html=1;sketch=0;" parent="1" vertex="1">
          <mxGeometry x="765" y="280" width="10" height="10" as="geometry" />
        </mxCell>
        <mxCell id="f36LNTUcsk6rT417hQk8-35" value="" style="endArrow=none;html=1;rounded=0;entryX=0;entryY=0.5;entryDx=0;entryDy=0;exitX=0.999;exitY=0.375;exitDx=0;exitDy=0;exitPerimeter=0;" parent="1" source="f36LNTUcsk6rT417hQk8-4" target="f36LNTUcsk6rT417hQk8-33" edge="1">
          <mxGeometry width="50" height="50" relative="1" as="geometry">
            <mxPoint x="315" y="290" as="sourcePoint" />
            <mxPoint x="365" y="240" as="targetPoint" />
          </mxGeometry>
        </mxCell>
        <mxCell id="f36LNTUcsk6rT417hQk8-43" value="&quot;01111&quot;" style="text;whiteSpace=wrap;" parent="1" vertex="1">
          <mxGeometry x="-195" y="280" width="40" height="20" as="geometry" />
        </mxCell>
        <mxCell id="f36LNTUcsk6rT417hQk8-44" value="" style="endArrow=none;html=1;rounded=0;exitX=0.75;exitY=1;exitDx=0;exitDy=0;entryX=0;entryY=0.75;entryDx=0;entryDy=0;" parent="1" source="f36LNTUcsk6rT417hQk8-43" target="f36LNTUcsk6rT417hQk8-41" edge="1">
          <mxGeometry width="50" height="50" relative="1" as="geometry">
            <mxPoint x="-75" y="330" as="sourcePoint" />
            <mxPoint x="-25" y="280" as="targetPoint" />
          </mxGeometry>
        </mxCell>
        <mxCell id="f36LNTUcsk6rT417hQk8-46" value="" style="endArrow=none;html=1;rounded=0;entryX=1;entryY=0.5;entryDx=0;entryDy=0;exitX=-0.047;exitY=0.169;exitDx=0;exitDy=0;exitPerimeter=0;" parent="1" source="f36LNTUcsk6rT417hQk8-36" target="f36LNTUcsk6rT417hQk8-41" edge="1">
          <mxGeometry width="50" height="50" relative="1" as="geometry">
            <mxPoint x="-25" y="280" as="sourcePoint" />
            <mxPoint x="-55" y="280" as="targetPoint" />
            <Array as="points">
              <mxPoint x="-35" y="280" />
              <mxPoint x="-55" y="280" />
            </Array>
          </mxGeometry>
        </mxCell>
        <mxCell id="f36LNTUcsk6rT417hQk8-84" value="" style="group" parent="1" vertex="1" connectable="0">
          <mxGeometry x="55" y="910" width="52" height="50" as="geometry" />
        </mxCell>
        <mxCell id="f36LNTUcsk6rT417hQk8-77" value="" style="whiteSpace=wrap;html=1;aspect=fixed;fillColor=#fff2cc;strokeColor=#d6b656;" parent="f36LNTUcsk6rT417hQk8-84" vertex="1">
          <mxGeometry width="50" height="50" as="geometry" />
        </mxCell>
        <mxCell id="f36LNTUcsk6rT417hQk8-78" value="D" style="text;html=1;align=center;verticalAlign=middle;whiteSpace=wrap;rounded=0;" parent="f36LNTUcsk6rT417hQk8-84" vertex="1">
          <mxGeometry y="5" width="12" height="10" as="geometry" />
        </mxCell>
        <mxCell id="f36LNTUcsk6rT417hQk8-82" value="CE" style="text;html=1;align=center;verticalAlign=middle;whiteSpace=wrap;rounded=0;" parent="f36LNTUcsk6rT417hQk8-84" vertex="1">
          <mxGeometry y="15" width="20" height="20" as="geometry" />
        </mxCell>
        <mxCell id="f36LNTUcsk6rT417hQk8-83" value="Q" style="text;html=1;align=center;verticalAlign=middle;whiteSpace=wrap;rounded=0;" parent="f36LNTUcsk6rT417hQk8-84" vertex="1">
          <mxGeometry x="30" width="20" height="30" as="geometry" />
        </mxCell>
        <mxCell id="IwBVZNgAtHDTUKfrDfSh-21" value="" style="group" vertex="1" connectable="0" parent="f36LNTUcsk6rT417hQk8-84">
          <mxGeometry y="30" width="15" height="20" as="geometry" />
        </mxCell>
        <mxCell id="IwBVZNgAtHDTUKfrDfSh-22" value="" style="endArrow=none;html=1;rounded=0;entryX=0;entryY=0.75;entryDx=0;entryDy=0;" edge="1" parent="IwBVZNgAtHDTUKfrDfSh-21">
          <mxGeometry width="50" height="50" relative="1" as="geometry">
            <mxPoint x="15" y="10" as="sourcePoint" />
            <mxPoint as="targetPoint" />
          </mxGeometry>
        </mxCell>
        <mxCell id="IwBVZNgAtHDTUKfrDfSh-23" value="" style="endArrow=none;html=1;rounded=0;exitX=0;exitY=1;exitDx=0;exitDy=0;" edge="1" parent="IwBVZNgAtHDTUKfrDfSh-21">
          <mxGeometry width="50" height="50" relative="1" as="geometry">
            <mxPoint y="20" as="sourcePoint" />
            <mxPoint x="15" y="10" as="targetPoint" />
          </mxGeometry>
        </mxCell>
        <mxCell id="IwBVZNgAtHDTUKfrDfSh-37" value="RST" style="text;html=1;align=center;verticalAlign=middle;whiteSpace=wrap;rounded=0;" vertex="1" parent="f36LNTUcsk6rT417hQk8-84">
          <mxGeometry x="12" y="40" width="40" height="10" as="geometry" />
        </mxCell>
        <mxCell id="f36LNTUcsk6rT417hQk8-85" value="" style="group" parent="1" vertex="1" connectable="0">
          <mxGeometry x="55" y="840" width="50" height="50" as="geometry" />
        </mxCell>
        <mxCell id="f36LNTUcsk6rT417hQk8-86" value="" style="whiteSpace=wrap;html=1;aspect=fixed;fillColor=#fff2cc;strokeColor=#d6b656;" parent="f36LNTUcsk6rT417hQk8-85" vertex="1">
          <mxGeometry width="50" height="50" as="geometry" />
        </mxCell>
        <mxCell id="f36LNTUcsk6rT417hQk8-87" value="D" style="text;html=1;align=center;verticalAlign=middle;whiteSpace=wrap;rounded=0;" parent="f36LNTUcsk6rT417hQk8-85" vertex="1">
          <mxGeometry y="5" width="12" height="10" as="geometry" />
        </mxCell>
        <mxCell id="f36LNTUcsk6rT417hQk8-89" value="CE" style="text;html=1;align=center;verticalAlign=middle;whiteSpace=wrap;rounded=0;" parent="f36LNTUcsk6rT417hQk8-85" vertex="1">
          <mxGeometry y="15" width="20" height="20" as="geometry" />
        </mxCell>
        <mxCell id="f36LNTUcsk6rT417hQk8-90" value="Q" style="text;html=1;align=center;verticalAlign=middle;whiteSpace=wrap;rounded=0;" parent="f36LNTUcsk6rT417hQk8-85" vertex="1">
          <mxGeometry x="30" width="20" height="30" as="geometry" />
        </mxCell>
        <mxCell id="IwBVZNgAtHDTUKfrDfSh-18" value="" style="group" vertex="1" connectable="0" parent="f36LNTUcsk6rT417hQk8-85">
          <mxGeometry y="30" width="15" height="20" as="geometry" />
        </mxCell>
        <mxCell id="IwBVZNgAtHDTUKfrDfSh-19" value="" style="endArrow=none;html=1;rounded=0;entryX=0;entryY=0.75;entryDx=0;entryDy=0;" edge="1" parent="IwBVZNgAtHDTUKfrDfSh-18">
          <mxGeometry width="50" height="50" relative="1" as="geometry">
            <mxPoint x="15" y="10" as="sourcePoint" />
            <mxPoint as="targetPoint" />
          </mxGeometry>
        </mxCell>
        <mxCell id="IwBVZNgAtHDTUKfrDfSh-20" value="" style="endArrow=none;html=1;rounded=0;exitX=0;exitY=1;exitDx=0;exitDy=0;" edge="1" parent="IwBVZNgAtHDTUKfrDfSh-18">
          <mxGeometry width="50" height="50" relative="1" as="geometry">
            <mxPoint y="20" as="sourcePoint" />
            <mxPoint x="15" y="10" as="targetPoint" />
          </mxGeometry>
        </mxCell>
        <mxCell id="IwBVZNgAtHDTUKfrDfSh-38" value="RST" style="text;html=1;align=center;verticalAlign=middle;whiteSpace=wrap;rounded=0;" vertex="1" parent="f36LNTUcsk6rT417hQk8-85">
          <mxGeometry x="10" y="40" width="40" height="10" as="geometry" />
        </mxCell>
        <mxCell id="f36LNTUcsk6rT417hQk8-91" value="" style="group;fillColor=#fff2cc;strokeColor=#d6b656;" parent="1" vertex="1" connectable="0">
          <mxGeometry x="55" y="770" width="50" height="50" as="geometry" />
        </mxCell>
        <mxCell id="f36LNTUcsk6rT417hQk8-92" value="" style="whiteSpace=wrap;html=1;aspect=fixed;fillColor=#fff2cc;strokeColor=#d6b656;" parent="f36LNTUcsk6rT417hQk8-91" vertex="1">
          <mxGeometry width="50" height="50" as="geometry" />
        </mxCell>
        <mxCell id="f36LNTUcsk6rT417hQk8-93" value="D" style="text;html=1;align=center;verticalAlign=middle;whiteSpace=wrap;rounded=0;" parent="f36LNTUcsk6rT417hQk8-91" vertex="1">
          <mxGeometry y="5" width="12" height="10" as="geometry" />
        </mxCell>
        <mxCell id="f36LNTUcsk6rT417hQk8-95" value="CE" style="text;html=1;align=center;verticalAlign=middle;whiteSpace=wrap;rounded=0;" parent="f36LNTUcsk6rT417hQk8-91" vertex="1">
          <mxGeometry y="15" width="20" height="20" as="geometry" />
        </mxCell>
        <mxCell id="f36LNTUcsk6rT417hQk8-96" value="Q" style="text;html=1;align=center;verticalAlign=middle;whiteSpace=wrap;rounded=0;" parent="f36LNTUcsk6rT417hQk8-91" vertex="1">
          <mxGeometry x="30" width="20" height="30" as="geometry" />
        </mxCell>
        <mxCell id="IwBVZNgAtHDTUKfrDfSh-15" value="" style="group" vertex="1" connectable="0" parent="f36LNTUcsk6rT417hQk8-91">
          <mxGeometry y="30" width="15" height="20" as="geometry" />
        </mxCell>
        <mxCell id="IwBVZNgAtHDTUKfrDfSh-16" value="" style="endArrow=none;html=1;rounded=0;entryX=0;entryY=0.75;entryDx=0;entryDy=0;" edge="1" parent="IwBVZNgAtHDTUKfrDfSh-15">
          <mxGeometry width="50" height="50" relative="1" as="geometry">
            <mxPoint x="15" y="10" as="sourcePoint" />
            <mxPoint as="targetPoint" />
          </mxGeometry>
        </mxCell>
        <mxCell id="IwBVZNgAtHDTUKfrDfSh-17" value="" style="endArrow=none;html=1;rounded=0;exitX=0;exitY=1;exitDx=0;exitDy=0;" edge="1" parent="IwBVZNgAtHDTUKfrDfSh-15">
          <mxGeometry width="50" height="50" relative="1" as="geometry">
            <mxPoint y="20" as="sourcePoint" />
            <mxPoint x="15" y="10" as="targetPoint" />
          </mxGeometry>
        </mxCell>
        <mxCell id="IwBVZNgAtHDTUKfrDfSh-31" value="RST" style="text;html=1;align=center;verticalAlign=middle;whiteSpace=wrap;rounded=0;" vertex="1" parent="f36LNTUcsk6rT417hQk8-91">
          <mxGeometry x="10" y="40" width="40" height="10" as="geometry" />
        </mxCell>
        <mxCell id="f36LNTUcsk6rT417hQk8-109" value="" style="group;fillColor=#fff2cc;strokeColor=#d6b656;" parent="1" vertex="1" connectable="0">
          <mxGeometry x="55" y="420" width="50" height="50" as="geometry" />
        </mxCell>
        <mxCell id="f36LNTUcsk6rT417hQk8-110" value="" style="whiteSpace=wrap;html=1;aspect=fixed;fillColor=#fff2cc;strokeColor=#d6b656;" parent="f36LNTUcsk6rT417hQk8-109" vertex="1">
          <mxGeometry width="50" height="50" as="geometry" />
        </mxCell>
        <mxCell id="f36LNTUcsk6rT417hQk8-111" value="D" style="text;html=1;align=center;verticalAlign=middle;whiteSpace=wrap;rounded=0;" parent="f36LNTUcsk6rT417hQk8-109" vertex="1">
          <mxGeometry y="5" width="12" height="10" as="geometry" />
        </mxCell>
        <mxCell id="f36LNTUcsk6rT417hQk8-113" value="CE" style="text;html=1;align=center;verticalAlign=middle;whiteSpace=wrap;rounded=0;" parent="f36LNTUcsk6rT417hQk8-109" vertex="1">
          <mxGeometry y="15" width="20" height="20" as="geometry" />
        </mxCell>
        <mxCell id="f36LNTUcsk6rT417hQk8-114" value="Q" style="text;html=1;align=center;verticalAlign=middle;whiteSpace=wrap;rounded=0;" parent="f36LNTUcsk6rT417hQk8-109" vertex="1">
          <mxGeometry x="30" width="20" height="30" as="geometry" />
        </mxCell>
        <mxCell id="IwBVZNgAtHDTUKfrDfSh-36" value="RST" style="text;html=1;align=center;verticalAlign=middle;whiteSpace=wrap;rounded=0;" vertex="1" parent="f36LNTUcsk6rT417hQk8-109">
          <mxGeometry x="10" y="40" width="40" height="10" as="geometry" />
        </mxCell>
        <mxCell id="IwBVZNgAtHDTUKfrDfSh-48" value="" style="group" vertex="1" connectable="0" parent="f36LNTUcsk6rT417hQk8-109">
          <mxGeometry y="30" width="15" height="20" as="geometry" />
        </mxCell>
        <mxCell id="IwBVZNgAtHDTUKfrDfSh-49" value="" style="endArrow=none;html=1;rounded=0;entryX=0;entryY=0.75;entryDx=0;entryDy=0;" edge="1" parent="IwBVZNgAtHDTUKfrDfSh-48">
          <mxGeometry width="50" height="50" relative="1" as="geometry">
            <mxPoint x="15" y="10" as="sourcePoint" />
            <mxPoint as="targetPoint" />
          </mxGeometry>
        </mxCell>
        <mxCell id="IwBVZNgAtHDTUKfrDfSh-50" value="" style="endArrow=none;html=1;rounded=0;exitX=0;exitY=1;exitDx=0;exitDy=0;" edge="1" parent="IwBVZNgAtHDTUKfrDfSh-48">
          <mxGeometry width="50" height="50" relative="1" as="geometry">
            <mxPoint y="20" as="sourcePoint" />
            <mxPoint x="15" y="10" as="targetPoint" />
          </mxGeometry>
        </mxCell>
        <mxCell id="f36LNTUcsk6rT417hQk8-115" value="" style="group;fillColor=#fff2cc;strokeColor=#d6b656;" parent="1" vertex="1" connectable="0">
          <mxGeometry x="55" y="490" width="50" height="50" as="geometry" />
        </mxCell>
        <mxCell id="f36LNTUcsk6rT417hQk8-116" value="" style="whiteSpace=wrap;html=1;aspect=fixed;fillColor=#fff2cc;strokeColor=#d6b656;" parent="f36LNTUcsk6rT417hQk8-115" vertex="1">
          <mxGeometry width="50" height="50" as="geometry" />
        </mxCell>
        <mxCell id="f36LNTUcsk6rT417hQk8-117" value="D" style="text;html=1;align=center;verticalAlign=middle;whiteSpace=wrap;rounded=0;" parent="f36LNTUcsk6rT417hQk8-115" vertex="1">
          <mxGeometry y="5" width="12" height="10" as="geometry" />
        </mxCell>
        <mxCell id="f36LNTUcsk6rT417hQk8-119" value="CE" style="text;html=1;align=center;verticalAlign=middle;whiteSpace=wrap;rounded=0;" parent="f36LNTUcsk6rT417hQk8-115" vertex="1">
          <mxGeometry y="15" width="20" height="20" as="geometry" />
        </mxCell>
        <mxCell id="f36LNTUcsk6rT417hQk8-120" value="Q" style="text;html=1;align=center;verticalAlign=middle;whiteSpace=wrap;rounded=0;" parent="f36LNTUcsk6rT417hQk8-115" vertex="1">
          <mxGeometry x="30" width="20" height="30" as="geometry" />
        </mxCell>
        <mxCell id="IwBVZNgAtHDTUKfrDfSh-6" value="" style="group" vertex="1" connectable="0" parent="f36LNTUcsk6rT417hQk8-115">
          <mxGeometry y="30" width="15" height="20" as="geometry" />
        </mxCell>
        <mxCell id="IwBVZNgAtHDTUKfrDfSh-7" value="" style="endArrow=none;html=1;rounded=0;entryX=0;entryY=0.75;entryDx=0;entryDy=0;" edge="1" parent="IwBVZNgAtHDTUKfrDfSh-6">
          <mxGeometry width="50" height="50" relative="1" as="geometry">
            <mxPoint x="15" y="10" as="sourcePoint" />
            <mxPoint as="targetPoint" />
          </mxGeometry>
        </mxCell>
        <mxCell id="IwBVZNgAtHDTUKfrDfSh-8" value="" style="endArrow=none;html=1;rounded=0;exitX=0;exitY=1;exitDx=0;exitDy=0;" edge="1" parent="IwBVZNgAtHDTUKfrDfSh-6">
          <mxGeometry width="50" height="50" relative="1" as="geometry">
            <mxPoint y="20" as="sourcePoint" />
            <mxPoint x="15" y="10" as="targetPoint" />
          </mxGeometry>
        </mxCell>
        <mxCell id="IwBVZNgAtHDTUKfrDfSh-35" value="RST" style="text;html=1;align=center;verticalAlign=middle;whiteSpace=wrap;rounded=0;" vertex="1" parent="f36LNTUcsk6rT417hQk8-115">
          <mxGeometry x="10" y="40" width="40" height="10" as="geometry" />
        </mxCell>
        <mxCell id="f36LNTUcsk6rT417hQk8-128" value="" style="shape=ellipse;fillColor=#000000;strokeColor=none;html=1;sketch=0;" parent="1" vertex="1">
          <mxGeometry x="35" y="440" width="10" height="10" as="geometry" />
        </mxCell>
        <mxCell id="f36LNTUcsk6rT417hQk8-130" value="" style="shape=ellipse;fillColor=#000000;strokeColor=none;html=1;sketch=0;" parent="1" vertex="1">
          <mxGeometry x="35" y="510" width="10" height="10" as="geometry" />
        </mxCell>
        <mxCell id="f36LNTUcsk6rT417hQk8-132" value="" style="shape=ellipse;fillColor=#000000;strokeColor=none;html=1;sketch=0;" parent="1" vertex="1">
          <mxGeometry x="35" y="580" width="10" height="10" as="geometry" />
        </mxCell>
        <mxCell id="f36LNTUcsk6rT417hQk8-133" value="" style="shape=ellipse;fillColor=#000000;strokeColor=none;html=1;sketch=0;" parent="1" vertex="1">
          <mxGeometry x="35" y="650" width="10" height="10" as="geometry" />
        </mxCell>
        <mxCell id="f36LNTUcsk6rT417hQk8-138" value="" style="endArrow=none;html=1;rounded=0;entryX=1;entryY=0.5;entryDx=0;entryDy=0;entryPerimeter=0;exitX=0.5;exitY=0;exitDx=0;exitDy=0;" parent="1" source="f36LNTUcsk6rT417hQk8-128" target="f36LNTUcsk6rT417hQk8-27" edge="1">
          <mxGeometry width="50" height="50" relative="1" as="geometry">
            <mxPoint x="115" y="560" as="sourcePoint" />
            <mxPoint x="55" y="290" as="targetPoint" />
            <Array as="points">
              <mxPoint x="40" y="290" />
            </Array>
          </mxGeometry>
        </mxCell>
        <mxCell id="f36LNTUcsk6rT417hQk8-139" value="" style="endArrow=none;html=1;rounded=0;entryX=0.5;entryY=1;entryDx=0;entryDy=0;exitX=0.5;exitY=0;exitDx=0;exitDy=0;" parent="1" source="f36LNTUcsk6rT417hQk8-130" target="f36LNTUcsk6rT417hQk8-128" edge="1">
          <mxGeometry width="50" height="50" relative="1" as="geometry">
            <mxPoint x="-15" y="590" as="sourcePoint" />
            <mxPoint x="35" y="540" as="targetPoint" />
          </mxGeometry>
        </mxCell>
        <mxCell id="f36LNTUcsk6rT417hQk8-140" value="" style="endArrow=none;html=1;rounded=0;entryX=0.5;entryY=1;entryDx=0;entryDy=0;exitX=0.5;exitY=0;exitDx=0;exitDy=0;" parent="1" source="f36LNTUcsk6rT417hQk8-132" target="f36LNTUcsk6rT417hQk8-130" edge="1">
          <mxGeometry width="50" height="50" relative="1" as="geometry">
            <mxPoint x="-15" y="590" as="sourcePoint" />
            <mxPoint x="35" y="540" as="targetPoint" />
          </mxGeometry>
        </mxCell>
        <mxCell id="f36LNTUcsk6rT417hQk8-141" value="" style="endArrow=none;html=1;rounded=0;entryX=0.5;entryY=1;entryDx=0;entryDy=0;exitX=0.5;exitY=0;exitDx=0;exitDy=0;" parent="1" source="f36LNTUcsk6rT417hQk8-133" target="f36LNTUcsk6rT417hQk8-132" edge="1">
          <mxGeometry width="50" height="50" relative="1" as="geometry">
            <mxPoint x="-15" y="660" as="sourcePoint" />
            <mxPoint x="35" y="610" as="targetPoint" />
          </mxGeometry>
        </mxCell>
        <mxCell id="f36LNTUcsk6rT417hQk8-142" value="" style="endArrow=none;html=1;rounded=0;entryX=0.5;entryY=1;entryDx=0;entryDy=0;exitX=0.5;exitY=0;exitDx=0;exitDy=0;" parent="1" source="f36LNTUcsk6rT417hQk8-134" edge="1" target="f36LNTUcsk6rT417hQk8-133">
          <mxGeometry width="50" height="50" relative="1" as="geometry">
            <mxPoint x="36.079999999999984" y="690" as="sourcePoint" />
            <mxPoint x="36.079999999999984" y="640" as="targetPoint" />
          </mxGeometry>
        </mxCell>
        <mxCell id="f36LNTUcsk6rT417hQk8-146" value="" style="endArrow=none;html=1;rounded=0;entryX=1;entryY=0.5;entryDx=0;entryDy=0;exitX=0;exitY=0.5;exitDx=0;exitDy=0;" parent="1" source="f36LNTUcsk6rT417hQk8-113" target="f36LNTUcsk6rT417hQk8-128" edge="1">
          <mxGeometry width="50" height="50" relative="1" as="geometry">
            <mxPoint x="-145" y="590" as="sourcePoint" />
            <mxPoint x="-95" y="540" as="targetPoint" />
          </mxGeometry>
        </mxCell>
        <mxCell id="f36LNTUcsk6rT417hQk8-148" value="" style="endArrow=none;html=1;rounded=0;entryX=1;entryY=0.5;entryDx=0;entryDy=0;exitX=0;exitY=0.5;exitDx=0;exitDy=0;" parent="1" source="f36LNTUcsk6rT417hQk8-119" target="f36LNTUcsk6rT417hQk8-130" edge="1">
          <mxGeometry width="50" height="50" relative="1" as="geometry">
            <mxPoint x="-145" y="590" as="sourcePoint" />
            <mxPoint x="-95" y="540" as="targetPoint" />
          </mxGeometry>
        </mxCell>
        <mxCell id="f36LNTUcsk6rT417hQk8-149" value="" style="endArrow=none;html=1;rounded=0;entryX=1;entryY=0.5;entryDx=0;entryDy=0;exitX=-0.006;exitY=0.474;exitDx=0;exitDy=0;exitPerimeter=0;" parent="1" source="f36LNTUcsk6rT417hQk8-125" target="f36LNTUcsk6rT417hQk8-132" edge="1">
          <mxGeometry width="50" height="50" relative="1" as="geometry">
            <mxPoint x="50" y="580" as="sourcePoint" />
            <mxPoint x="-95" y="640" as="targetPoint" />
          </mxGeometry>
        </mxCell>
        <mxCell id="f36LNTUcsk6rT417hQk8-150" value="" style="endArrow=none;html=1;rounded=0;entryX=1;entryY=0.5;entryDx=0;entryDy=0;exitX=0;exitY=0.5;exitDx=0;exitDy=0;" parent="1" source="f36LNTUcsk6rT417hQk8-107" target="f36LNTUcsk6rT417hQk8-133" edge="1">
          <mxGeometry width="50" height="50" relative="1" as="geometry">
            <mxPoint x="-145" y="790" as="sourcePoint" />
            <mxPoint x="-95" y="740" as="targetPoint" />
          </mxGeometry>
        </mxCell>
        <mxCell id="f36LNTUcsk6rT417hQk8-151" value="" style="endArrow=none;html=1;rounded=0;entryX=1;entryY=0.5;entryDx=0;entryDy=0;exitX=0;exitY=0.537;exitDx=0;exitDy=0;exitPerimeter=0;" parent="1" source="f36LNTUcsk6rT417hQk8-101" target="f36LNTUcsk6rT417hQk8-134" edge="1">
          <mxGeometry width="50" height="50" relative="1" as="geometry">
            <mxPoint x="-145" y="790" as="sourcePoint" />
            <mxPoint x="-95" y="740" as="targetPoint" />
          </mxGeometry>
        </mxCell>
        <mxCell id="f36LNTUcsk6rT417hQk8-152" value="" style="endArrow=none;html=1;rounded=0;entryX=1;entryY=0.5;entryDx=0;entryDy=0;exitX=0;exitY=0.5;exitDx=0;exitDy=0;" parent="1" source="f36LNTUcsk6rT417hQk8-95" target="f36LNTUcsk6rT417hQk8-135" edge="1">
          <mxGeometry width="50" height="50" relative="1" as="geometry">
            <mxPoint x="-145" y="790" as="sourcePoint" />
            <mxPoint x="-95" y="740" as="targetPoint" />
          </mxGeometry>
        </mxCell>
        <mxCell id="f36LNTUcsk6rT417hQk8-153" value="" style="endArrow=none;html=1;rounded=0;entryX=1;entryY=0.5;entryDx=0;entryDy=0;exitX=0;exitY=0.5;exitDx=0;exitDy=0;" parent="1" source="f36LNTUcsk6rT417hQk8-89" target="f36LNTUcsk6rT417hQk8-136" edge="1">
          <mxGeometry width="50" height="50" relative="1" as="geometry">
            <mxPoint x="-145" y="880" as="sourcePoint" />
            <mxPoint x="-95" y="830" as="targetPoint" />
          </mxGeometry>
        </mxCell>
        <mxCell id="f36LNTUcsk6rT417hQk8-20" value="" style="shape=trapezoid;perimeter=trapezoidPerimeter;whiteSpace=wrap;html=1;fixedSize=1;rotation=-90;size=29.36999999999989;fillColor=#fff2cc;strokeColor=#d6b656;" parent="1" vertex="1">
          <mxGeometry x="-193.5" y="634.88" width="172.75" height="80" as="geometry" />
        </mxCell>
        <mxCell id="f36LNTUcsk6rT417hQk8-6" value="&lt;div&gt;&lt;font size=&quot;1&quot;&gt;&lt;b style=&quot;font-size: 16px;&quot;&gt;p_demux&lt;/b&gt;&lt;/font&gt;&lt;/div&gt;&lt;div&gt;&lt;font size=&quot;1&quot;&gt;&lt;b style=&quot;font-size: 16px;&quot;&gt;_reg&lt;/b&gt;&lt;/font&gt;&lt;/div&gt;" style="text;html=1;align=center;verticalAlign=middle;whiteSpace=wrap;rounded=0;" parent="1" vertex="1">
          <mxGeometry x="-145.87" y="770" width="77.5" height="30" as="geometry" />
        </mxCell>
        <mxCell id="f36LNTUcsk6rT417hQk8-49" value="Y0" style="text;html=1;align=center;verticalAlign=middle;whiteSpace=wrap;rounded=0;" parent="1" vertex="1">
          <mxGeometry x="-85.62" y="601.26" width="20" height="9.37" as="geometry" />
        </mxCell>
        <mxCell id="f36LNTUcsk6rT417hQk8-51" value="D" style="text;html=1;align=center;verticalAlign=middle;whiteSpace=wrap;rounded=0;" parent="1" vertex="1">
          <mxGeometry x="-145.25" y="665.63" width="10" height="30" as="geometry" />
        </mxCell>
        <mxCell id="f36LNTUcsk6rT417hQk8-52" value="SEL" style="text;html=1;align=center;verticalAlign=middle;whiteSpace=wrap;rounded=0;" parent="1" vertex="1">
          <mxGeometry x="-120.62" y="600" width="30" height="30" as="geometry" />
        </mxCell>
        <mxCell id="f36LNTUcsk6rT417hQk8-155" value="" style="endArrow=none;html=1;rounded=0;entryX=1;entryY=0.5;entryDx=0;entryDy=0;exitX=0;exitY=0.5;exitDx=0;exitDy=0;" parent="1" target="f36LNTUcsk6rT417hQk8-114" edge="1" source="f36LNTUcsk6rT417hQk8-164">
          <mxGeometry width="50" height="50" relative="1" as="geometry">
            <mxPoint x="135" y="465" as="sourcePoint" />
            <mxPoint x="65" y="310" as="targetPoint" />
          </mxGeometry>
        </mxCell>
        <mxCell id="f36LNTUcsk6rT417hQk8-157" value="" style="endArrow=none;html=1;rounded=0;exitX=1;exitY=0.5;exitDx=0;exitDy=0;entryX=0;entryY=0.5;entryDx=0;entryDy=0;" parent="1" source="f36LNTUcsk6rT417hQk8-120" edge="1" target="f36LNTUcsk6rT417hQk8-165">
          <mxGeometry width="50" height="50" relative="1" as="geometry">
            <mxPoint x="95" y="530" as="sourcePoint" />
            <mxPoint x="135" y="525" as="targetPoint" />
          </mxGeometry>
        </mxCell>
        <mxCell id="f36LNTUcsk6rT417hQk8-158" value="" style="endArrow=none;html=1;rounded=0;exitX=1;exitY=0.5;exitDx=0;exitDy=0;entryX=0;entryY=0.5;entryDx=0;entryDy=0;" parent="1" source="f36LNTUcsk6rT417hQk8-126" edge="1" target="f36LNTUcsk6rT417hQk8-166">
          <mxGeometry width="50" height="50" relative="1" as="geometry">
            <mxPoint x="95" y="610" as="sourcePoint" />
            <mxPoint x="135" y="585" as="targetPoint" />
          </mxGeometry>
        </mxCell>
        <mxCell id="f36LNTUcsk6rT417hQk8-159" value="" style="endArrow=none;html=1;rounded=0;exitX=1;exitY=0.5;exitDx=0;exitDy=0;entryX=0;entryY=0.5;entryDx=0;entryDy=0;" parent="1" source="f36LNTUcsk6rT417hQk8-108" edge="1" target="f36LNTUcsk6rT417hQk8-167">
          <mxGeometry width="50" height="50" relative="1" as="geometry">
            <mxPoint x="95" y="720" as="sourcePoint" />
            <mxPoint x="135" y="645" as="targetPoint" />
          </mxGeometry>
        </mxCell>
        <mxCell id="f36LNTUcsk6rT417hQk8-160" value="" style="endArrow=none;html=1;rounded=0;exitX=0.985;exitY=0.445;exitDx=0;exitDy=0;exitPerimeter=0;entryX=0;entryY=0.5;entryDx=0;entryDy=0;" parent="1" source="f36LNTUcsk6rT417hQk8-102" edge="1" target="f36LNTUcsk6rT417hQk8-168">
          <mxGeometry width="50" height="50" relative="1" as="geometry">
            <mxPoint x="95" y="720" as="sourcePoint" />
            <mxPoint x="135" y="703" as="targetPoint" />
          </mxGeometry>
        </mxCell>
        <mxCell id="f36LNTUcsk6rT417hQk8-161" value="" style="endArrow=none;html=1;rounded=0;exitX=1;exitY=0.5;exitDx=0;exitDy=0;entryX=0;entryY=0.5;entryDx=0;entryDy=0;" parent="1" source="f36LNTUcsk6rT417hQk8-96" edge="1" target="f36LNTUcsk6rT417hQk8-169">
          <mxGeometry width="50" height="50" relative="1" as="geometry">
            <mxPoint x="95" y="810" as="sourcePoint" />
            <mxPoint x="135" y="760" as="targetPoint" />
          </mxGeometry>
        </mxCell>
        <mxCell id="f36LNTUcsk6rT417hQk8-162" value="" style="endArrow=none;html=1;rounded=0;entryX=1;entryY=0.5;entryDx=0;entryDy=0;exitX=0;exitY=0.5;exitDx=0;exitDy=0;" parent="1" target="f36LNTUcsk6rT417hQk8-90" edge="1" source="f36LNTUcsk6rT417hQk8-170">
          <mxGeometry width="50" height="50" relative="1" as="geometry">
            <mxPoint x="135" y="820" as="sourcePoint" />
            <mxPoint x="135" y="860" as="targetPoint" />
          </mxGeometry>
        </mxCell>
        <mxCell id="f36LNTUcsk6rT417hQk8-163" value="" style="endArrow=none;html=1;rounded=0;entryX=1;entryY=0.5;entryDx=0;entryDy=0;exitX=0;exitY=0.5;exitDx=0;exitDy=0;" parent="1" target="f36LNTUcsk6rT417hQk8-83" edge="1" source="f36LNTUcsk6rT417hQk8-171">
          <mxGeometry width="50" height="50" relative="1" as="geometry">
            <mxPoint x="135" y="880" as="sourcePoint" />
            <mxPoint x="115" y="870" as="targetPoint" />
          </mxGeometry>
        </mxCell>
        <mxCell id="f36LNTUcsk6rT417hQk8-164" value="&lt;font color=&quot;#009900&quot;&gt;DOUT(0)&lt;br&gt;&lt;/font&gt;" style="text;html=1;align=center;verticalAlign=middle;whiteSpace=wrap;rounded=0;fontStyle=1" parent="1" vertex="1">
          <mxGeometry x="130" y="420" width="70" height="30" as="geometry" />
        </mxCell>
        <mxCell id="f36LNTUcsk6rT417hQk8-165" value="&lt;font color=&quot;#009900&quot;&gt;DOUT(1)&lt;br&gt;&lt;/font&gt;" style="text;html=1;align=center;verticalAlign=middle;whiteSpace=wrap;rounded=0;fontStyle=1" parent="1" vertex="1">
          <mxGeometry x="130" y="490" width="70" height="30" as="geometry" />
        </mxCell>
        <mxCell id="f36LNTUcsk6rT417hQk8-166" value="&lt;font color=&quot;#009900&quot;&gt;DOUT(2)&lt;br&gt;&lt;/font&gt;" style="text;html=1;align=center;verticalAlign=middle;whiteSpace=wrap;rounded=0;fontStyle=1" parent="1" vertex="1">
          <mxGeometry x="130" y="560.63" width="70" height="30" as="geometry" />
        </mxCell>
        <mxCell id="f36LNTUcsk6rT417hQk8-167" value="&lt;font color=&quot;#009900&quot;&gt;DOUT(3)&lt;br&gt;&lt;/font&gt;" style="text;html=1;align=center;verticalAlign=middle;whiteSpace=wrap;rounded=0;fontStyle=1" parent="1" vertex="1">
          <mxGeometry x="130" y="630" width="70" height="30" as="geometry" />
        </mxCell>
        <mxCell id="f36LNTUcsk6rT417hQk8-168" value="&lt;font color=&quot;#009900&quot;&gt;DOUT(4)&lt;br&gt;&lt;/font&gt;" style="text;html=1;align=center;verticalAlign=middle;whiteSpace=wrap;rounded=0;fontStyle=1" parent="1" vertex="1">
          <mxGeometry x="130" y="698" width="70" height="30" as="geometry" />
        </mxCell>
        <mxCell id="f36LNTUcsk6rT417hQk8-169" value="&lt;font color=&quot;#009900&quot;&gt;DOUT(5)&lt;br&gt;&lt;/font&gt;" style="text;html=1;align=center;verticalAlign=middle;whiteSpace=wrap;rounded=0;fontStyle=1" parent="1" vertex="1">
          <mxGeometry x="130" y="770" width="70" height="30" as="geometry" />
        </mxCell>
        <mxCell id="f36LNTUcsk6rT417hQk8-170" value="&lt;font color=&quot;#009900&quot;&gt;DOUT(6)&lt;br&gt;&lt;/font&gt;" style="text;html=1;align=center;verticalAlign=middle;whiteSpace=wrap;rounded=0;fontStyle=1" parent="1" vertex="1">
          <mxGeometry x="130" y="840" width="70" height="30" as="geometry" />
        </mxCell>
        <mxCell id="f36LNTUcsk6rT417hQk8-171" value="&lt;font color=&quot;#009900&quot;&gt;DOUT(7)&lt;br&gt;&lt;/font&gt;" style="text;html=1;align=center;verticalAlign=middle;whiteSpace=wrap;rounded=0;fontStyle=1" parent="1" vertex="1">
          <mxGeometry x="130" y="910" width="70" height="30" as="geometry" />
        </mxCell>
        <mxCell id="f36LNTUcsk6rT417hQk8-172" value="Y1" style="text;html=1;align=center;verticalAlign=middle;whiteSpace=wrap;rounded=0;" parent="1" vertex="1">
          <mxGeometry x="-85.62" y="621.26" width="20" height="9.37" as="geometry" />
        </mxCell>
        <mxCell id="f36LNTUcsk6rT417hQk8-173" value="Y2" style="text;html=1;align=center;verticalAlign=middle;whiteSpace=wrap;rounded=0;" parent="1" vertex="1">
          <mxGeometry x="-85.62" y="640.95" width="20" height="9.37" as="geometry" />
        </mxCell>
        <mxCell id="f36LNTUcsk6rT417hQk8-174" value="Y3" style="text;html=1;align=center;verticalAlign=middle;whiteSpace=wrap;rounded=0;" parent="1" vertex="1">
          <mxGeometry x="-85.62" y="660.63" width="20" height="9.37" as="geometry" />
        </mxCell>
        <mxCell id="f36LNTUcsk6rT417hQk8-175" value="Y4" style="text;html=1;align=center;verticalAlign=middle;whiteSpace=wrap;rounded=0;" parent="1" vertex="1">
          <mxGeometry x="-85.62" y="680.63" width="20" height="9.37" as="geometry" />
        </mxCell>
        <mxCell id="f36LNTUcsk6rT417hQk8-176" value="Y5" style="text;html=1;align=center;verticalAlign=middle;whiteSpace=wrap;rounded=0;" parent="1" vertex="1">
          <mxGeometry x="-85.62" y="700.32" width="20" height="9.37" as="geometry" />
        </mxCell>
        <mxCell id="f36LNTUcsk6rT417hQk8-177" value="Y6" style="text;html=1;align=center;verticalAlign=middle;whiteSpace=wrap;rounded=0;" parent="1" vertex="1">
          <mxGeometry x="-85.62" y="720.63" width="20" height="9.37" as="geometry" />
        </mxCell>
        <mxCell id="f36LNTUcsk6rT417hQk8-178" value="Y7" style="text;html=1;align=center;verticalAlign=middle;whiteSpace=wrap;rounded=0;" parent="1" vertex="1">
          <mxGeometry x="-85.62" y="740.63" width="20" height="9.37" as="geometry" />
        </mxCell>
        <mxCell id="f36LNTUcsk6rT417hQk8-181" value="CNT_CYCLE [4:0]" style="text;html=1;align=center;verticalAlign=middle;whiteSpace=wrap;rounded=0;" parent="1" vertex="1">
          <mxGeometry x="-285" y="50" width="100" height="20" as="geometry" />
        </mxCell>
        <mxCell id="f36LNTUcsk6rT417hQk8-182" value="CNT_BIT [3:0]" style="text;html=1;align=center;verticalAlign=middle;whiteSpace=wrap;rounded=0;" parent="1" vertex="1">
          <mxGeometry x="-285" y="80" width="100" height="20" as="geometry" />
        </mxCell>
        <mxCell id="f36LNTUcsk6rT417hQk8-184" value="&lt;font color=&quot;#990000&quot;&gt;DIN&lt;/font&gt;" style="text;html=1;align=center;verticalAlign=middle;whiteSpace=wrap;rounded=0;fontStyle=1" parent="1" vertex="1">
          <mxGeometry x="-195" y="660.63" width="40" height="10" as="geometry" />
        </mxCell>
        <mxCell id="f36LNTUcsk6rT417hQk8-185" value="&lt;font color=&quot;#990000&quot;&gt;DIN&lt;/font&gt;" style="text;html=1;align=center;verticalAlign=middle;whiteSpace=wrap;rounded=0;fontStyle=1" parent="1" vertex="1">
          <mxGeometry x="-48.75" y="300" width="25" height="10" as="geometry" />
        </mxCell>
        <mxCell id="f36LNTUcsk6rT417hQk8-195" value="" style="group" parent="1" vertex="1" connectable="0">
          <mxGeometry x="470" y="240" width="130" height="120" as="geometry" />
        </mxCell>
        <mxCell id="f36LNTUcsk6rT417hQk8-4" value="" style="whiteSpace=wrap;html=1;aspect=fixed;fillColor=#fff2cc;strokeColor=#d6b656;" parent="f36LNTUcsk6rT417hQk8-195" vertex="1">
          <mxGeometry x="10" width="120" height="120" as="geometry" />
        </mxCell>
        <mxCell id="f36LNTUcsk6rT417hQk8-7" value="&lt;b&gt;&lt;font style=&quot;font-size: 16px;&quot;&gt;counter_bit&lt;/font&gt;&lt;/b&gt;" style="text;html=1;align=center;verticalAlign=middle;whiteSpace=wrap;rounded=0;" parent="f36LNTUcsk6rT417hQk8-195" vertex="1">
          <mxGeometry x="20" width="100" height="30" as="geometry" />
        </mxCell>
        <mxCell id="f36LNTUcsk6rT417hQk8-13" value="CE" style="text;html=1;align=center;verticalAlign=middle;whiteSpace=wrap;rounded=0;" parent="f36LNTUcsk6rT417hQk8-195" vertex="1">
          <mxGeometry x="10" y="30" width="20" height="30" as="geometry" />
        </mxCell>
        <mxCell id="f36LNTUcsk6rT417hQk8-193" value="Q" style="text;html=1;align=center;verticalAlign=middle;whiteSpace=wrap;rounded=0;" parent="f36LNTUcsk6rT417hQk8-195" vertex="1">
          <mxGeometry x="110" y="40" width="20" height="10" as="geometry" />
        </mxCell>
        <mxCell id="f36LNTUcsk6rT417hQk8-323" value="RST" style="text;html=1;align=center;verticalAlign=middle;whiteSpace=wrap;rounded=0;" parent="f36LNTUcsk6rT417hQk8-195" vertex="1">
          <mxGeometry x="10" y="80" width="30" height="20" as="geometry" />
        </mxCell>
        <mxCell id="f36LNTUcsk6rT417hQk8-196" value="" style="group" parent="1" vertex="1" connectable="0">
          <mxGeometry x="570" y="40" width="130" height="120" as="geometry" />
        </mxCell>
        <mxCell id="f36LNTUcsk6rT417hQk8-3" value="" style="whiteSpace=wrap;html=1;aspect=fixed;fillColor=#fff2cc;strokeColor=#d6b656;" parent="f36LNTUcsk6rT417hQk8-196" vertex="1">
          <mxGeometry x="10" width="120" height="120" as="geometry" />
        </mxCell>
        <mxCell id="f36LNTUcsk6rT417hQk8-8" value="&lt;b&gt;&lt;font style=&quot;font-size: 16px;&quot;&gt;counter_cycle&lt;/font&gt;&lt;/b&gt;" style="text;html=1;align=center;verticalAlign=middle;whiteSpace=wrap;rounded=0;" parent="f36LNTUcsk6rT417hQk8-196" vertex="1">
          <mxGeometry x="20" width="100" height="30" as="geometry" />
        </mxCell>
        <mxCell id="f36LNTUcsk6rT417hQk8-12" value="CE" style="text;html=1;align=center;verticalAlign=middle;whiteSpace=wrap;rounded=0;" parent="f36LNTUcsk6rT417hQk8-196" vertex="1">
          <mxGeometry x="10" y="20" width="20" height="30" as="geometry" />
        </mxCell>
        <mxCell id="f36LNTUcsk6rT417hQk8-192" value="Q" style="text;html=1;align=center;verticalAlign=middle;whiteSpace=wrap;rounded=0;" parent="f36LNTUcsk6rT417hQk8-196" vertex="1">
          <mxGeometry x="110" y="30" width="20" height="10" as="geometry" />
        </mxCell>
        <mxCell id="f36LNTUcsk6rT417hQk8-317" value="RST" style="text;html=1;align=center;verticalAlign=middle;whiteSpace=wrap;rounded=0;" parent="f36LNTUcsk6rT417hQk8-196" vertex="1">
          <mxGeometry x="10" y="80" width="30" height="20" as="geometry" />
        </mxCell>
        <mxCell id="f36LNTUcsk6rT417hQk8-202" value="" style="group" parent="1" vertex="1" connectable="0">
          <mxGeometry x="220" y="215" width="50" height="80" as="geometry" />
        </mxCell>
        <mxCell id="f36LNTUcsk6rT417hQk8-203" value="" style="shape=or;whiteSpace=wrap;html=1;rotation=0;fillColor=#fff2cc;strokeColor=#d6b656;" parent="f36LNTUcsk6rT417hQk8-202" vertex="1">
          <mxGeometry width="50" height="80" as="geometry" />
        </mxCell>
        <mxCell id="f36LNTUcsk6rT417hQk8-204" value="&lt;font size=&quot;1&quot;&gt;&lt;b style=&quot;font-size: 16px;&quot;&gt;AND&lt;/b&gt;&lt;/font&gt;" style="text;html=1;align=center;verticalAlign=middle;whiteSpace=wrap;rounded=0;" parent="f36LNTUcsk6rT417hQk8-202" vertex="1">
          <mxGeometry x="1.8799999999999955" y="25" width="46.25" height="30" as="geometry" />
        </mxCell>
        <mxCell id="f36LNTUcsk6rT417hQk8-205" value="" style="group" parent="1" vertex="1" connectable="0">
          <mxGeometry x="290" y="80" width="50" height="80" as="geometry" />
        </mxCell>
        <mxCell id="f36LNTUcsk6rT417hQk8-206" value="" style="shape=or;whiteSpace=wrap;html=1;rotation=0;fillColor=#fff2cc;strokeColor=#d6b656;" parent="f36LNTUcsk6rT417hQk8-205" vertex="1">
          <mxGeometry width="50" height="80" as="geometry" />
        </mxCell>
        <mxCell id="f36LNTUcsk6rT417hQk8-207" value="&lt;font size=&quot;1&quot;&gt;&lt;b style=&quot;font-size: 16px;&quot;&gt;AND&lt;/b&gt;&lt;/font&gt;" style="text;html=1;align=center;verticalAlign=middle;whiteSpace=wrap;rounded=0;" parent="f36LNTUcsk6rT417hQk8-205" vertex="1">
          <mxGeometry x="1.8799999999999955" y="25" width="46.25" height="30" as="geometry" />
        </mxCell>
        <mxCell id="f36LNTUcsk6rT417hQk8-209" value="" style="group" parent="1" vertex="1" connectable="0">
          <mxGeometry x="-145.62" y="240" width="80.62" height="80" as="geometry" />
        </mxCell>
        <mxCell id="f36LNTUcsk6rT417hQk8-41" value="" style="whiteSpace=wrap;html=1;aspect=fixed;fillColor=#fff2cc;strokeColor=#d6b656;" parent="f36LNTUcsk6rT417hQk8-209" vertex="1">
          <mxGeometry width="80" height="80" as="geometry" />
        </mxCell>
        <mxCell id="f36LNTUcsk6rT417hQk8-42" value="&lt;b&gt;&lt;font style=&quot;font-size: 16px;&quot;&gt;CMP&lt;/font&gt;&lt;/b&gt;" style="text;html=1;align=center;verticalAlign=middle;whiteSpace=wrap;rounded=0;" parent="f36LNTUcsk6rT417hQk8-209" vertex="1">
          <mxGeometry x="20.620000000000005" width="60" height="30" as="geometry" />
        </mxCell>
        <mxCell id="f36LNTUcsk6rT417hQk8-45" value="==" style="text;html=1;align=center;verticalAlign=middle;whiteSpace=wrap;rounded=0;" parent="f36LNTUcsk6rT417hQk8-209" vertex="1">
          <mxGeometry x="60" y="25" width="20" height="30" as="geometry" />
        </mxCell>
        <mxCell id="f36LNTUcsk6rT417hQk8-291" value="&lt;div&gt;CNT_CYCLE&lt;/div&gt;&lt;div&gt;[4:0]&lt;/div&gt;" style="text;html=1;align=center;verticalAlign=middle;whiteSpace=wrap;rounded=0;" parent="f36LNTUcsk6rT417hQk8-209" vertex="1">
          <mxGeometry x="-64.38" y="-10" width="100" height="20" as="geometry" />
        </mxCell>
        <mxCell id="IwBVZNgAtHDTUKfrDfSh-40" value="I2" style="text;html=1;align=center;verticalAlign=middle;whiteSpace=wrap;rounded=0;" vertex="1" parent="f36LNTUcsk6rT417hQk8-209">
          <mxGeometry y="55" width="20" height="10" as="geometry" />
        </mxCell>
        <mxCell id="IwBVZNgAtHDTUKfrDfSh-39" value="I1" style="text;html=1;align=center;verticalAlign=middle;whiteSpace=wrap;rounded=0;" vertex="1" parent="f36LNTUcsk6rT417hQk8-209">
          <mxGeometry y="15" width="20" height="10" as="geometry" />
        </mxCell>
        <mxCell id="f36LNTUcsk6rT417hQk8-237" value="" style="endArrow=none;html=1;rounded=0;entryX=1;entryY=0.5;entryDx=0;entryDy=0;" parent="1" target="f36LNTUcsk6rT417hQk8-213" edge="1">
          <mxGeometry width="50" height="50" relative="1" as="geometry">
            <mxPoint x="290" y="150" as="sourcePoint" />
            <mxPoint x="120" y="160" as="targetPoint" />
          </mxGeometry>
        </mxCell>
        <mxCell id="f36LNTUcsk6rT417hQk8-238" value="" style="endArrow=none;html=1;rounded=0;exitX=0;exitY=0.25;exitDx=0;exitDy=0;entryX=0.5;entryY=1;entryDx=0;entryDy=0;" parent="1" source="f36LNTUcsk6rT417hQk8-211" target="f36LNTUcsk6rT417hQk8-240" edge="1">
          <mxGeometry width="50" height="50" relative="1" as="geometry">
            <mxPoint x="155" y="125.00000000000006" as="sourcePoint" />
            <mxPoint x="150" y="20" as="targetPoint" />
            <Array as="points">
              <mxPoint x="155" y="130" />
            </Array>
          </mxGeometry>
        </mxCell>
        <mxCell id="f36LNTUcsk6rT417hQk8-240" value="" style="shape=ellipse;fillColor=#000000;strokeColor=none;html=1;sketch=0;" parent="1" vertex="1">
          <mxGeometry x="150" y="20" width="10" height="10" as="geometry" />
        </mxCell>
        <mxCell id="f36LNTUcsk6rT417hQk8-242" value="" style="endArrow=none;html=1;rounded=0;exitX=1.011;exitY=0.563;exitDx=0;exitDy=0;exitPerimeter=0;" parent="1" source="f36LNTUcsk6rT417hQk8-308" edge="1">
          <mxGeometry width="50" height="50" relative="1" as="geometry">
            <mxPoint x="140" y="100" as="sourcePoint" />
            <mxPoint x="155" y="100" as="targetPoint" />
            <Array as="points">
              <mxPoint x="150" y="100" />
            </Array>
          </mxGeometry>
        </mxCell>
        <mxCell id="f36LNTUcsk6rT417hQk8-243" value="" style="endArrow=none;html=1;rounded=0;entryX=0;entryY=0.25;entryDx=0;entryDy=0;entryPerimeter=0;" parent="1" target="f36LNTUcsk6rT417hQk8-206" edge="1">
          <mxGeometry width="50" height="50" relative="1" as="geometry">
            <mxPoint x="150" y="100" as="sourcePoint" />
            <mxPoint x="240" y="80" as="targetPoint" />
            <Array as="points" />
          </mxGeometry>
        </mxCell>
        <mxCell id="f36LNTUcsk6rT417hQk8-244" value="" style="endArrow=none;html=1;rounded=0;entryX=0;entryY=0.5;entryDx=0;entryDy=0;exitX=0;exitY=0.25;exitDx=0;exitDy=0;" parent="1" source="f36LNTUcsk6rT417hQk8-1" target="f36LNTUcsk6rT417hQk8-240" edge="1">
          <mxGeometry width="50" height="50" relative="1" as="geometry">
            <mxPoint x="-70" y="20" as="sourcePoint" />
            <mxPoint x="140" y="20" as="targetPoint" />
            <Array as="points">
              <mxPoint x="-290" y="70" />
              <mxPoint x="-290" y="25" />
            </Array>
          </mxGeometry>
        </mxCell>
        <mxCell id="f36LNTUcsk6rT417hQk8-245" value="" style="shape=ellipse;fillColor=#000000;strokeColor=none;html=1;sketch=0;" parent="1" vertex="1">
          <mxGeometry x="55" y="95" width="10" height="10" as="geometry" />
        </mxCell>
        <mxCell id="f36LNTUcsk6rT417hQk8-246" value="" style="endArrow=none;html=1;rounded=0;exitX=1;exitY=0.5;exitDx=0;exitDy=0;entryX=0;entryY=0.517;entryDx=0;entryDy=0;entryPerimeter=0;" parent="1" source="f36LNTUcsk6rT417hQk8-245" target="f36LNTUcsk6rT417hQk8-307" edge="1">
          <mxGeometry width="50" height="50" relative="1" as="geometry">
            <mxPoint x="50" y="140" as="sourcePoint" />
            <mxPoint x="80" y="100" as="targetPoint" />
          </mxGeometry>
        </mxCell>
        <mxCell id="f36LNTUcsk6rT417hQk8-247" value="" style="endArrow=none;html=1;rounded=0;entryX=0;entryY=0.5;entryDx=0;entryDy=0;exitX=0;exitY=1;exitDx=0;exitDy=0;" parent="1" source="f36LNTUcsk6rT417hQk8-10" target="f36LNTUcsk6rT417hQk8-245" edge="1">
          <mxGeometry width="50" height="50" relative="1" as="geometry">
            <mxPoint y="100" as="sourcePoint" />
            <mxPoint x="100" y="90" as="targetPoint" />
          </mxGeometry>
        </mxCell>
        <mxCell id="f36LNTUcsk6rT417hQk8-248" value="" style="endArrow=none;html=1;rounded=0;entryX=0.5;entryY=1;entryDx=0;entryDy=0;exitX=0.005;exitY=0.116;exitDx=0;exitDy=0;exitPerimeter=0;" parent="1" source="f36LNTUcsk6rT417hQk8-203" target="f36LNTUcsk6rT417hQk8-245" edge="1">
          <mxGeometry width="50" height="50" relative="1" as="geometry">
            <mxPoint x="280" y="240" as="sourcePoint" />
            <mxPoint x="90" y="170" as="targetPoint" />
            <Array as="points">
              <mxPoint x="60" y="224" />
            </Array>
          </mxGeometry>
        </mxCell>
        <mxCell id="f36LNTUcsk6rT417hQk8-259" value="" style="endArrow=none;html=1;rounded=0;exitX=0;exitY=0.5;exitDx=0;exitDy=0;entryX=1;entryY=0.5;entryDx=0;entryDy=0;entryPerimeter=0;" parent="1" source="f36LNTUcsk6rT417hQk8-278" target="f36LNTUcsk6rT417hQk8-203" edge="1">
          <mxGeometry width="50" height="50" relative="1" as="geometry">
            <mxPoint x="250" y="309.9999999999999" as="sourcePoint" />
            <mxPoint x="370" y="160" as="targetPoint" />
          </mxGeometry>
        </mxCell>
        <mxCell id="f36LNTUcsk6rT417hQk8-210" value="" style="group" parent="1" vertex="1" connectable="0">
          <mxGeometry x="170" y="110" width="80.62" height="80" as="geometry" />
        </mxCell>
        <mxCell id="f36LNTUcsk6rT417hQk8-211" value="" style="whiteSpace=wrap;html=1;aspect=fixed;fillColor=#fff2cc;strokeColor=#d6b656;" parent="f36LNTUcsk6rT417hQk8-210" vertex="1">
          <mxGeometry width="80" height="80" as="geometry" />
        </mxCell>
        <mxCell id="f36LNTUcsk6rT417hQk8-212" value="&lt;b&gt;&lt;font style=&quot;font-size: 16px;&quot;&gt;CMP&lt;/font&gt;&lt;/b&gt;" style="text;html=1;align=center;verticalAlign=middle;whiteSpace=wrap;rounded=0;" parent="f36LNTUcsk6rT417hQk8-210" vertex="1">
          <mxGeometry x="20.620000000000005" width="60" height="30" as="geometry" />
        </mxCell>
        <mxCell id="f36LNTUcsk6rT417hQk8-213" value="==" style="text;html=1;align=center;verticalAlign=middle;whiteSpace=wrap;rounded=0;" parent="f36LNTUcsk6rT417hQk8-210" vertex="1">
          <mxGeometry x="60" y="25" width="20" height="30" as="geometry" />
        </mxCell>
        <mxCell id="IwBVZNgAtHDTUKfrDfSh-41" value="I1" style="text;html=1;align=center;verticalAlign=middle;whiteSpace=wrap;rounded=0;" vertex="1" parent="f36LNTUcsk6rT417hQk8-210">
          <mxGeometry x="0.6200000000000045" y="15" width="20" height="10" as="geometry" />
        </mxCell>
        <mxCell id="IwBVZNgAtHDTUKfrDfSh-42" value="I2" style="text;html=1;align=center;verticalAlign=middle;whiteSpace=wrap;rounded=0;" vertex="1" parent="f36LNTUcsk6rT417hQk8-210">
          <mxGeometry x="0.62" y="60" width="20" height="20" as="geometry" />
        </mxCell>
        <mxCell id="f36LNTUcsk6rT417hQk8-222" value="&quot;00111&quot;" style="text;whiteSpace=wrap;" parent="1" vertex="1">
          <mxGeometry x="120" y="160" width="40" height="20" as="geometry" />
        </mxCell>
        <mxCell id="f36LNTUcsk6rT417hQk8-27" value="" style="shape=or;whiteSpace=wrap;html=1;rotation=0;fillColor=#fff2cc;strokeColor=#d6b656;" parent="1" vertex="1">
          <mxGeometry x="-23.75" y="250" width="50" height="80" as="geometry" />
        </mxCell>
        <mxCell id="f36LNTUcsk6rT417hQk8-36" value="&lt;font size=&quot;1&quot;&gt;&lt;b style=&quot;font-size: 16px;&quot;&gt;AND&lt;/b&gt;&lt;/font&gt;" style="text;html=1;align=center;verticalAlign=middle;whiteSpace=wrap;rounded=0;" parent="1" vertex="1">
          <mxGeometry x="-21.870000000000005" y="275" width="46.25" height="30" as="geometry" />
        </mxCell>
        <mxCell id="f36LNTUcsk6rT417hQk8-270" value="" style="endArrow=none;html=1;rounded=0;entryX=1;entryY=0.5;entryDx=0;entryDy=0;entryPerimeter=0;exitX=0;exitY=0;exitDx=0;exitDy=0;" parent="1" source="f36LNTUcsk6rT417hQk8-269" target="f36LNTUcsk6rT417hQk8-206" edge="1">
          <mxGeometry width="50" height="50" relative="1" as="geometry">
            <mxPoint x="180" y="240" as="sourcePoint" />
            <mxPoint x="230" y="190" as="targetPoint" />
            <Array as="points">
              <mxPoint x="350" y="185" />
              <mxPoint x="350" y="120" />
            </Array>
          </mxGeometry>
        </mxCell>
        <mxCell id="f36LNTUcsk6rT417hQk8-272" value="" style="group" parent="1" vertex="1" connectable="0">
          <mxGeometry x="450" y="35" width="50" height="80" as="geometry" />
        </mxCell>
        <mxCell id="f36LNTUcsk6rT417hQk8-273" value="" style="shape=or;whiteSpace=wrap;html=1;rotation=0;fillColor=#fff2cc;strokeColor=#d6b656;" parent="f36LNTUcsk6rT417hQk8-272" vertex="1">
          <mxGeometry width="50" height="80" as="geometry" />
        </mxCell>
        <mxCell id="f36LNTUcsk6rT417hQk8-274" value="&lt;font size=&quot;1&quot;&gt;&lt;b style=&quot;font-size: 16px;&quot;&gt;AND&lt;/b&gt;&lt;/font&gt;" style="text;html=1;align=center;verticalAlign=middle;whiteSpace=wrap;rounded=0;" parent="f36LNTUcsk6rT417hQk8-272" vertex="1">
          <mxGeometry x="1.8799999999999955" y="25" width="46.25" height="30" as="geometry" />
        </mxCell>
        <mxCell id="f36LNTUcsk6rT417hQk8-275" value="" style="endArrow=none;html=1;rounded=0;entryX=0;entryY=1;entryDx=0;entryDy=0;exitX=0;exitY=0.357;exitDx=0;exitDy=0;exitPerimeter=0;" parent="1" source="f36LNTUcsk6rT417hQk8-273" target="f36LNTUcsk6rT417hQk8-9" edge="1">
          <mxGeometry width="50" height="50" relative="1" as="geometry">
            <mxPoint x="370" y="240" as="sourcePoint" />
            <mxPoint x="420" y="190" as="targetPoint" />
          </mxGeometry>
        </mxCell>
        <mxCell id="f36LNTUcsk6rT417hQk8-276" value="" style="endArrow=none;html=1;rounded=0;exitX=0.5;exitY=0;exitDx=0;exitDy=0;" parent="1" source="f36LNTUcsk6rT417hQk8-318" edge="1">
          <mxGeometry width="50" height="50" relative="1" as="geometry">
            <mxPoint x="420" y="130" as="sourcePoint" />
            <mxPoint x="450" y="90" as="targetPoint" />
            <Array as="points">
              <mxPoint x="435" y="90" />
            </Array>
          </mxGeometry>
        </mxCell>
        <mxCell id="f36LNTUcsk6rT417hQk8-277" value="" style="endArrow=none;html=1;rounded=0;entryX=0.991;entryY=0.408;entryDx=0;entryDy=0;entryPerimeter=0;exitX=0;exitY=0.25;exitDx=0;exitDy=0;" parent="1" source="f36LNTUcsk6rT417hQk8-12" target="f36LNTUcsk6rT417hQk8-273" edge="1">
          <mxGeometry width="50" height="50" relative="1" as="geometry">
            <mxPoint x="340" y="250" as="sourcePoint" />
            <mxPoint x="390" y="200" as="targetPoint" />
          </mxGeometry>
        </mxCell>
        <mxCell id="f36LNTUcsk6rT417hQk8-278" value="" style="shape=ellipse;fillColor=#000000;strokeColor=none;html=1;sketch=0;" parent="1" vertex="1">
          <mxGeometry x="350" y="250" width="10" height="10" as="geometry" />
        </mxCell>
        <mxCell id="f36LNTUcsk6rT417hQk8-279" value="" style="endArrow=none;html=1;rounded=0;entryX=0.001;entryY=0.823;entryDx=0;entryDy=0;exitX=0.5;exitY=0;exitDx=0;exitDy=0;entryPerimeter=0;" parent="1" source="f36LNTUcsk6rT417hQk8-278" target="f36LNTUcsk6rT417hQk8-269" edge="1">
          <mxGeometry width="50" height="50" relative="1" as="geometry">
            <mxPoint x="300" y="260" as="sourcePoint" />
            <mxPoint x="350" y="210" as="targetPoint" />
            <Array as="points">
              <mxPoint x="355" y="210" />
            </Array>
          </mxGeometry>
        </mxCell>
        <mxCell id="f36LNTUcsk6rT417hQk8-281" value="" style="endArrow=none;html=1;rounded=0;exitX=1;exitY=0.5;exitDx=0;exitDy=0;" parent="1" source="f36LNTUcsk6rT417hQk8-278" edge="1">
          <mxGeometry width="50" height="50" relative="1" as="geometry">
            <mxPoint x="330" y="300" as="sourcePoint" />
            <mxPoint x="480" y="280" as="targetPoint" />
            <Array as="points">
              <mxPoint x="450" y="255" />
              <mxPoint x="450" y="280" />
            </Array>
          </mxGeometry>
        </mxCell>
        <mxCell id="f36LNTUcsk6rT417hQk8-282" value="" style="endArrow=none;html=1;rounded=0;entryX=1;entryY=0.5;entryDx=0;entryDy=0;exitX=1;exitY=1;exitDx=0;exitDy=0;" parent="1" source="f36LNTUcsk6rT417hQk8-192" target="f36LNTUcsk6rT417hQk8-240" edge="1">
          <mxGeometry width="50" height="50" relative="1" as="geometry">
            <mxPoint x="655" y="70" as="sourcePoint" />
            <mxPoint x="150" y="280" as="targetPoint" />
            <Array as="points">
              <mxPoint x="760" y="80" />
              <mxPoint x="760" y="25" />
              <mxPoint x="690" y="25" />
              <mxPoint x="670" y="25" />
            </Array>
          </mxGeometry>
        </mxCell>
        <mxCell id="f36LNTUcsk6rT417hQk8-283" value="" style="endArrow=none;html=1;rounded=0;exitX=0.75;exitY=1;exitDx=0;exitDy=0;" parent="1" source="f36LNTUcsk6rT417hQk8-222" edge="1">
          <mxGeometry width="50" height="50" relative="1" as="geometry">
            <mxPoint x="99.44" y="249.24" as="sourcePoint" />
            <mxPoint x="170" y="180" as="targetPoint" />
          </mxGeometry>
        </mxCell>
        <mxCell id="f36LNTUcsk6rT417hQk8-284" value="" style="shape=ellipse;fillColor=#000000;strokeColor=none;html=1;sketch=0;" parent="1" vertex="1">
          <mxGeometry x="-295" y="65" width="10" height="10" as="geometry" />
        </mxCell>
        <mxCell id="f36LNTUcsk6rT417hQk8-286" value="" style="endArrow=none;html=1;rounded=0;exitX=0.5;exitY=1;exitDx=0;exitDy=0;entryX=0;entryY=0.25;entryDx=0;entryDy=0;" parent="1" source="f36LNTUcsk6rT417hQk8-284" target="f36LNTUcsk6rT417hQk8-41" edge="1">
          <mxGeometry width="50" height="50" relative="1" as="geometry">
            <mxPoint x="-190" y="100" as="sourcePoint" />
            <mxPoint x="-280" y="160" as="targetPoint" />
            <Array as="points">
              <mxPoint x="-290" y="260" />
              <mxPoint x="-210" y="260" />
              <mxPoint x="-190" y="260" />
            </Array>
          </mxGeometry>
        </mxCell>
        <mxCell id="f36LNTUcsk6rT417hQk8-287" value="" style="shape=ellipse;fillColor=#000000;strokeColor=none;html=1;sketch=0;" parent="1" vertex="1">
          <mxGeometry x="-45" y="275" width="10" height="10" as="geometry" />
        </mxCell>
        <mxCell id="f36LNTUcsk6rT417hQk8-288" value="" style="endArrow=none;html=1;rounded=0;exitX=0.5;exitY=0;exitDx=0;exitDy=0;entryX=-0.071;entryY=1.172;entryDx=0;entryDy=0;entryPerimeter=0;" parent="1" source="f36LNTUcsk6rT417hQk8-287" target="f36LNTUcsk6rT417hQk8-204" edge="1">
          <mxGeometry width="50" height="50" relative="1" as="geometry">
            <mxPoint x="30" y="240" as="sourcePoint" />
            <mxPoint x="80" y="190" as="targetPoint" />
            <Array as="points">
              <mxPoint x="-40" y="240" />
              <mxPoint x="40" y="240" />
              <mxPoint x="60" y="240" />
              <mxPoint x="200" y="240" />
              <mxPoint x="200" y="275" />
            </Array>
          </mxGeometry>
        </mxCell>
        <mxCell id="f36LNTUcsk6rT417hQk8-292" value="CNT_CYCLE [4:0] == &quot;01111&quot;" style="text;html=1;align=center;verticalAlign=middle;whiteSpace=wrap;rounded=0;" parent="1" vertex="1">
          <mxGeometry x="100" y="250" width="100" height="20" as="geometry" />
        </mxCell>
        <mxCell id="f36LNTUcsk6rT417hQk8-293" value="BIT_EN" style="text;html=1;align=center;verticalAlign=middle;whiteSpace=wrap;rounded=0;" parent="1" vertex="1">
          <mxGeometry x="170" y="210" width="50" height="10" as="geometry" />
        </mxCell>
        <mxCell id="f36LNTUcsk6rT417hQk8-294" value="INV(BIT_EN)" style="text;html=1;align=center;verticalAlign=middle;whiteSpace=wrap;rounded=0;" parent="1" vertex="1">
          <mxGeometry x="210" y="85" width="80" height="10" as="geometry" />
        </mxCell>
        <mxCell id="f36LNTUcsk6rT417hQk8-295" value="CNT_CYCLE [4:0]" style="text;html=1;align=center;verticalAlign=middle;whiteSpace=wrap;rounded=0;" parent="1" vertex="1">
          <mxGeometry x="70" y="130" width="100" height="20" as="geometry" />
        </mxCell>
        <mxCell id="f36LNTUcsk6rT417hQk8-297" value="" style="group;rotation=-90;" parent="1" vertex="1" connectable="0">
          <mxGeometry x="413.5" y="120" width="45" height="50" as="geometry" />
        </mxCell>
        <mxCell id="f36LNTUcsk6rT417hQk8-298" value="" style="triangle;whiteSpace=wrap;html=1;fillColor=#fff2cc;strokeColor=#d6b656;rotation=-90;" parent="f36LNTUcsk6rT417hQk8-297" vertex="1">
          <mxGeometry x="4.5" y="-3.3333333333333335" width="33.75" height="50" as="geometry" />
        </mxCell>
        <mxCell id="f36LNTUcsk6rT417hQk8-300" value="&lt;font size=&quot;1&quot;&gt;&lt;b style=&quot;font-size: 12px;&quot;&gt;INV&lt;/b&gt;&lt;/font&gt;" style="text;html=1;align=center;verticalAlign=middle;whiteSpace=wrap;rounded=0;rotation=0;" parent="f36LNTUcsk6rT417hQk8-297" vertex="1">
          <mxGeometry x="9.75" y="22.5" width="22.5" height="8.333333333333334" as="geometry" />
        </mxCell>
        <mxCell id="f36LNTUcsk6rT417hQk8-301" value="&lt;div&gt;CNT_BIT&lt;/div&gt;&lt;div&gt;[3:0]&lt;/div&gt;" style="text;html=1;align=center;verticalAlign=middle;whiteSpace=wrap;rounded=0;" parent="1" vertex="1">
          <mxGeometry x="-185" y="575.63" width="100" height="20" as="geometry" />
        </mxCell>
        <mxCell id="f36LNTUcsk6rT417hQk8-302" value="CNT_BIT [3:0]" style="text;html=1;align=center;verticalAlign=middle;whiteSpace=wrap;rounded=0;" parent="1" vertex="1">
          <mxGeometry x="600" y="265" width="100" height="20" as="geometry" />
        </mxCell>
        <mxCell id="f36LNTUcsk6rT417hQk8-303" value="&lt;div style=&quot;font-size: 10px;&quot;&gt;CNT_CYCLE&lt;/div&gt;&lt;div style=&quot;font-size: 10px;&quot;&gt;[4:0]&lt;/div&gt;" style="text;html=1;align=center;verticalAlign=middle;whiteSpace=wrap;rounded=0;fontSize=10;" parent="1" vertex="1">
          <mxGeometry x="700" y="85" width="64" height="20" as="geometry" />
        </mxCell>
        <mxCell id="f36LNTUcsk6rT417hQk8-304" value="" style="endArrow=none;html=1;rounded=0;entryX=0;entryY=1;entryDx=0;entryDy=0;exitX=0.5;exitY=0;exitDx=0;exitDy=0;" parent="1" target="f36LNTUcsk6rT417hQk8-11" edge="1" source="f36LNTUcsk6rT417hQk8-305">
          <mxGeometry width="50" height="50" relative="1" as="geometry">
            <mxPoint x="160" y="400" as="sourcePoint" />
            <mxPoint x="-40" y="150" as="targetPoint" />
            <Array as="points">
              <mxPoint x="265" y="410" />
              <mxPoint x="265" y="360" />
              <mxPoint x="160" y="360" />
              <mxPoint x="50" y="360" />
              <mxPoint x="50" y="130" />
            </Array>
          </mxGeometry>
        </mxCell>
        <mxCell id="f36LNTUcsk6rT417hQk8-305" value="&lt;font color=&quot;#009900&quot;&gt;DOUT_VLD&lt;/font&gt;" style="text;html=1;align=center;verticalAlign=middle;whiteSpace=wrap;rounded=0;fontStyle=1" parent="1" vertex="1">
          <mxGeometry x="230" y="425" width="70" height="20" as="geometry" />
        </mxCell>
        <mxCell id="f36LNTUcsk6rT417hQk8-306" value="" style="group;rotation=0;" parent="1" vertex="1" connectable="0">
          <mxGeometry x="82" y="75" width="45" height="50" as="geometry" />
        </mxCell>
        <mxCell id="f36LNTUcsk6rT417hQk8-307" value="" style="triangle;whiteSpace=wrap;html=1;fillColor=#fff2cc;strokeColor=#d6b656;rotation=0;" parent="f36LNTUcsk6rT417hQk8-306" vertex="1">
          <mxGeometry x="9" y="-1" width="33.75" height="50" as="geometry" />
        </mxCell>
        <mxCell id="f36LNTUcsk6rT417hQk8-309" value="&lt;font size=&quot;1&quot;&gt;&lt;b style=&quot;font-size: 12px;&quot;&gt;INV&lt;/b&gt;&lt;/font&gt;" style="text;html=1;align=center;verticalAlign=middle;whiteSpace=wrap;rounded=0;rotation=0;" parent="f36LNTUcsk6rT417hQk8-306" vertex="1">
          <mxGeometry x="10" y="19" width="22.5" height="8.333333333333334" as="geometry" />
        </mxCell>
        <mxCell id="f36LNTUcsk6rT417hQk8-318" value="" style="shape=ellipse;fillColor=#000000;strokeColor=none;html=1;sketch=0;" parent="1" vertex="1">
          <mxGeometry x="430" y="195" width="10" height="10" as="geometry" />
        </mxCell>
        <mxCell id="f36LNTUcsk6rT417hQk8-319" value="" style="endArrow=none;html=1;rounded=0;entryX=1;entryY=0.5;entryDx=0;entryDy=0;exitX=0;exitY=0.5;exitDx=0;exitDy=0;" parent="1" source="f36LNTUcsk6rT417hQk8-318" target="f36LNTUcsk6rT417hQk8-269" edge="1">
          <mxGeometry width="50" height="50" relative="1" as="geometry">
            <mxPoint x="430" y="180" as="sourcePoint" />
            <mxPoint x="480" y="130" as="targetPoint" />
          </mxGeometry>
        </mxCell>
        <mxCell id="f36LNTUcsk6rT417hQk8-320" value="" style="endArrow=none;html=1;rounded=0;exitX=1;exitY=0.5;exitDx=0;exitDy=0;entryX=0;entryY=0.5;entryDx=0;entryDy=0;" parent="1" source="f36LNTUcsk6rT417hQk8-328" target="f36LNTUcsk6rT417hQk8-317" edge="1">
          <mxGeometry width="50" height="50" relative="1" as="geometry">
            <mxPoint x="430" y="180" as="sourcePoint" />
            <mxPoint x="480" y="130" as="targetPoint" />
            <Array as="points">
              <mxPoint x="550" y="190" />
              <mxPoint x="550" y="130" />
            </Array>
          </mxGeometry>
        </mxCell>
        <mxCell id="f36LNTUcsk6rT417hQk8-321" value="" style="endArrow=none;html=1;rounded=0;" parent="1" edge="1">
          <mxGeometry width="50" height="50" relative="1" as="geometry">
            <mxPoint x="480" y="330" as="sourcePoint" />
            <mxPoint x="280" y="100" as="targetPoint" />
            <Array as="points">
              <mxPoint x="280" y="330" />
            </Array>
          </mxGeometry>
        </mxCell>
        <mxCell id="f36LNTUcsk6rT417hQk8-322" value="INV(BIT_EN)" style="text;html=1;align=center;verticalAlign=middle;whiteSpace=wrap;rounded=0;" parent="1" vertex="1">
          <mxGeometry x="400" y="310" width="80" height="20" as="geometry" />
        </mxCell>
        <mxCell id="f36LNTUcsk6rT417hQk8-324" value="" style="shape=ellipse;fillColor=#000000;strokeColor=none;html=1;sketch=0;" parent="1" vertex="1">
          <mxGeometry x="275" y="95" width="10" height="10" as="geometry" />
        </mxCell>
        <mxCell id="f36LNTUcsk6rT417hQk8-325" value="" style="group" parent="1" vertex="1" connectable="0">
          <mxGeometry x="365" y="160" width="60.25" height="80" as="geometry" />
        </mxCell>
        <mxCell id="f36LNTUcsk6rT417hQk8-265" value="" style="shape=xor;whiteSpace=wrap;html=1;fillColor=#fff2cc;strokeColor=#d6b656;" parent="f36LNTUcsk6rT417hQk8-325" vertex="1">
          <mxGeometry width="60" height="80" as="geometry" />
        </mxCell>
        <mxCell id="f36LNTUcsk6rT417hQk8-269" value="&lt;font size=&quot;1&quot;&gt;&lt;b style=&quot;font-size: 16px;&quot;&gt;OR&lt;/b&gt;&lt;/font&gt;" style="text;html=1;align=center;verticalAlign=middle;whiteSpace=wrap;rounded=0;" parent="f36LNTUcsk6rT417hQk8-325" vertex="1">
          <mxGeometry x="14" y="25" width="46.25" height="30" as="geometry" />
        </mxCell>
        <mxCell id="f36LNTUcsk6rT417hQk8-326" value="" style="group" parent="1" vertex="1" connectable="0">
          <mxGeometry x="480" y="150" width="60.25" height="80" as="geometry" />
        </mxCell>
        <mxCell id="f36LNTUcsk6rT417hQk8-327" value="" style="shape=xor;whiteSpace=wrap;html=1;fillColor=#fff2cc;strokeColor=#d6b656;" parent="f36LNTUcsk6rT417hQk8-326" vertex="1">
          <mxGeometry width="60" height="80" as="geometry" />
        </mxCell>
        <mxCell id="f36LNTUcsk6rT417hQk8-328" value="&lt;font size=&quot;1&quot;&gt;&lt;b style=&quot;font-size: 16px;&quot;&gt;OR&lt;/b&gt;&lt;/font&gt;" style="text;html=1;align=center;verticalAlign=middle;whiteSpace=wrap;rounded=0;" parent="f36LNTUcsk6rT417hQk8-326" vertex="1">
          <mxGeometry x="14" y="25" width="46.25" height="30" as="geometry" />
        </mxCell>
        <mxCell id="f36LNTUcsk6rT417hQk8-330" value="" style="endArrow=none;html=1;rounded=0;exitX=1;exitY=0.5;exitDx=0;exitDy=0;entryX=-0.015;entryY=0.832;entryDx=0;entryDy=0;entryPerimeter=0;" parent="1" source="f36LNTUcsk6rT417hQk8-318" target="f36LNTUcsk6rT417hQk8-328" edge="1">
          <mxGeometry width="50" height="50" relative="1" as="geometry">
            <mxPoint x="190" y="350" as="sourcePoint" />
            <mxPoint x="490" y="200" as="targetPoint" />
          </mxGeometry>
        </mxCell>
        <mxCell id="f36LNTUcsk6rT417hQk8-331" value="" style="endArrow=none;html=1;rounded=0;entryX=0;entryY=0;entryDx=0;entryDy=0;" parent="1" target="f36LNTUcsk6rT417hQk8-328" edge="1">
          <mxGeometry width="50" height="50" relative="1" as="geometry">
            <mxPoint x="390" y="64" as="sourcePoint" />
            <mxPoint x="550" y="50" as="targetPoint" />
            <Array as="points">
              <mxPoint x="390" y="30" />
              <mxPoint x="530" y="30" />
              <mxPoint x="530" y="130" />
              <mxPoint x="470" y="130" />
              <mxPoint x="470" y="175" />
            </Array>
          </mxGeometry>
        </mxCell>
        <mxCell id="f36LNTUcsk6rT417hQk8-332" value="" style="group;rotation=90;" parent="1" vertex="1" connectable="0">
          <mxGeometry x="506" y="70" width="45" height="50" as="geometry" />
        </mxCell>
        <mxCell id="f36LNTUcsk6rT417hQk8-333" value="" style="triangle;whiteSpace=wrap;html=1;fillColor=#fff2cc;strokeColor=#d6b656;rotation=90;" parent="f36LNTUcsk6rT417hQk8-332" vertex="1">
          <mxGeometry x="7" y="3" width="33.75" height="50" as="geometry" />
        </mxCell>
        <mxCell id="f36LNTUcsk6rT417hQk8-335" value="&lt;font size=&quot;1&quot;&gt;&lt;b style=&quot;font-size: 12px;&quot;&gt;INV&lt;/b&gt;&lt;/font&gt;" style="text;html=1;align=center;verticalAlign=middle;whiteSpace=wrap;rounded=0;rotation=0;" parent="f36LNTUcsk6rT417hQk8-332" vertex="1">
          <mxGeometry x="13" y="20" width="22.5" height="8.333333333333334" as="geometry" />
        </mxCell>
        <mxCell id="f36LNTUcsk6rT417hQk8-334" value="" style="ellipse;whiteSpace=wrap;html=1;fillColor=#fff2cc;strokeColor=#d6b656;rotation=90;" parent="1" vertex="1">
          <mxGeometry x="524.25" y="110.5" width="11.25" height="12.5" as="geometry" />
        </mxCell>
        <mxCell id="f36LNTUcsk6rT417hQk8-299" value="" style="ellipse;whiteSpace=wrap;html=1;fillColor=#fff2cc;strokeColor=#d6b656;rotation=-90;" parent="1" vertex="1">
          <mxGeometry x="429.25" y="116.67" width="11.25" height="12.5" as="geometry" />
        </mxCell>
        <mxCell id="f36LNTUcsk6rT417hQk8-308" value="" style="ellipse;whiteSpace=wrap;html=1;fillColor=#fff2cc;strokeColor=#d6b656;rotation=0;" parent="1" vertex="1">
          <mxGeometry x="124.75" y="92.75" width="11.25" height="12.5" as="geometry" />
        </mxCell>
        <mxCell id="f36LNTUcsk6rT417hQk8-336" value="" style="shape=ellipse;fillColor=#000000;strokeColor=none;html=1;sketch=0;" parent="1" vertex="1">
          <mxGeometry x="385" y="60" width="10" height="10" as="geometry" />
        </mxCell>
        <mxCell id="f36LNTUcsk6rT417hQk8-337" value="&lt;div style=&quot;font-size: 11px;&quot;&gt;&lt;font style=&quot;font-size: 11px;&quot;&gt;INV&lt;/font&gt;&lt;/div&gt;&lt;div style=&quot;font-size: 11px;&quot;&gt;&lt;font style=&quot;font-size: 11px;&quot;&gt;(CYCLE_EN)&lt;/font&gt;&lt;/div&gt;" style="text;html=1;align=center;verticalAlign=middle;whiteSpace=wrap;rounded=0;" parent="1" vertex="1">
          <mxGeometry x="480" y="120" width="50" height="20" as="geometry" />
        </mxCell>
        <mxCell id="f36LNTUcsk6rT417hQk8-340" value="" style="endArrow=none;html=1;rounded=0;entryX=0.5;entryY=1;entryDx=0;entryDy=0;exitX=0.5;exitY=0;exitDx=0;exitDy=0;" parent="1" source="f36LNTUcsk6rT417hQk8-135" target="f36LNTUcsk6rT417hQk8-134" edge="1">
          <mxGeometry width="50" height="50" relative="1" as="geometry">
            <mxPoint x="36.079999999999984" y="750" as="sourcePoint" />
            <mxPoint x="36.079999999999984" y="700" as="targetPoint" />
          </mxGeometry>
        </mxCell>
        <mxCell id="f36LNTUcsk6rT417hQk8-134" value="" style="shape=ellipse;fillColor=#000000;strokeColor=none;html=1;sketch=0;" parent="1" vertex="1">
          <mxGeometry x="35" y="720" width="10" height="10" as="geometry" />
        </mxCell>
        <mxCell id="f36LNTUcsk6rT417hQk8-342" value="" style="endArrow=none;html=1;rounded=0;entryX=0.5;entryY=1;entryDx=0;entryDy=0;exitX=0.5;exitY=0;exitDx=0;exitDy=0;" parent="1" source="f36LNTUcsk6rT417hQk8-136" target="f36LNTUcsk6rT417hQk8-135" edge="1">
          <mxGeometry width="50" height="50" relative="1" as="geometry">
            <mxPoint x="36.079999999999984" y="810" as="sourcePoint" />
            <mxPoint x="36.079999999999984" y="760" as="targetPoint" />
          </mxGeometry>
        </mxCell>
        <mxCell id="f36LNTUcsk6rT417hQk8-135" value="" style="shape=ellipse;fillColor=#000000;strokeColor=none;html=1;sketch=0;" parent="1" vertex="1">
          <mxGeometry x="35" y="790" width="10" height="10" as="geometry" />
        </mxCell>
        <mxCell id="f36LNTUcsk6rT417hQk8-343" value="" style="endArrow=none;html=1;rounded=0;entryX=0.5;entryY=1;entryDx=0;entryDy=0;exitX=0;exitY=0.5;exitDx=0;exitDy=0;" parent="1" source="f36LNTUcsk6rT417hQk8-82" target="f36LNTUcsk6rT417hQk8-136" edge="1">
          <mxGeometry width="50" height="50" relative="1" as="geometry">
            <mxPoint x="55" y="880" as="sourcePoint" />
            <mxPoint x="36.079999999999984" y="820" as="targetPoint" />
            <Array as="points">
              <mxPoint x="40" y="935" />
            </Array>
          </mxGeometry>
        </mxCell>
        <mxCell id="f36LNTUcsk6rT417hQk8-136" value="" style="shape=ellipse;fillColor=#000000;strokeColor=none;html=1;sketch=0;" parent="1" vertex="1">
          <mxGeometry x="35" y="860" width="10" height="10" as="geometry" />
        </mxCell>
        <mxCell id="f36LNTUcsk6rT417hQk8-344" value="" style="endArrow=none;html=1;rounded=0;exitX=0.91;exitY=0.999;exitDx=0;exitDy=0;entryX=0;entryY=0.5;entryDx=0;entryDy=0;exitPerimeter=0;" parent="1" source="f36LNTUcsk6rT417hQk8-20" target="f36LNTUcsk6rT417hQk8-111" edge="1">
          <mxGeometry width="50" height="50" relative="1" as="geometry">
            <mxPoint x="-50" y="640" as="sourcePoint" />
            <mxPoint y="590" as="targetPoint" />
            <Array as="points">
              <mxPoint x="-30" y="604" />
              <mxPoint x="-30" y="430" />
            </Array>
          </mxGeometry>
        </mxCell>
        <mxCell id="f36LNTUcsk6rT417hQk8-345" value="" style="endArrow=none;html=1;rounded=0;entryX=0;entryY=0.5;entryDx=0;entryDy=0;exitX=0.946;exitY=0.399;exitDx=0;exitDy=0;exitPerimeter=0;" parent="1" source="f36LNTUcsk6rT417hQk8-172" target="f36LNTUcsk6rT417hQk8-117" edge="1">
          <mxGeometry width="50" height="50" relative="1" as="geometry">
            <mxPoint x="-50" y="570" as="sourcePoint" />
            <mxPoint y="520" as="targetPoint" />
            <Array as="points">
              <mxPoint x="-20" y="625" />
              <mxPoint x="-20" y="500" />
            </Array>
          </mxGeometry>
        </mxCell>
        <mxCell id="f36LNTUcsk6rT417hQk8-346" value="" style="endArrow=none;html=1;rounded=0;exitX=0;exitY=0.5;exitDx=0;exitDy=0;entryX=0.674;entryY=1.002;entryDx=0;entryDy=0;entryPerimeter=0;" parent="1" source="f36LNTUcsk6rT417hQk8-123" target="f36LNTUcsk6rT417hQk8-20" edge="1">
          <mxGeometry width="50" height="50" relative="1" as="geometry">
            <mxPoint x="-120" y="660" as="sourcePoint" />
            <mxPoint x="-70" y="610" as="targetPoint" />
            <Array as="points">
              <mxPoint x="-10" y="570" />
              <mxPoint x="-10" y="645" />
            </Array>
          </mxGeometry>
        </mxCell>
        <mxCell id="f36LNTUcsk6rT417hQk8-347" value="" style="endArrow=none;html=1;rounded=0;entryX=0;entryY=0.5;entryDx=0;entryDy=0;exitX=0.924;exitY=0.423;exitDx=0;exitDy=0;exitPerimeter=0;" parent="1" source="f36LNTUcsk6rT417hQk8-174" target="f36LNTUcsk6rT417hQk8-105" edge="1">
          <mxGeometry width="50" height="50" relative="1" as="geometry">
            <mxPoint x="-160" y="730" as="sourcePoint" />
            <mxPoint x="-110" y="680" as="targetPoint" />
            <Array as="points">
              <mxPoint y="665" />
              <mxPoint y="640" />
            </Array>
          </mxGeometry>
        </mxCell>
        <mxCell id="f36LNTUcsk6rT417hQk8-348" value="" style="endArrow=none;html=1;rounded=0;entryX=0;entryY=0.5;entryDx=0;entryDy=0;exitX=0.949;exitY=0.455;exitDx=0;exitDy=0;exitPerimeter=0;" parent="1" source="f36LNTUcsk6rT417hQk8-175" target="f36LNTUcsk6rT417hQk8-99" edge="1">
          <mxGeometry width="50" height="50" relative="1" as="geometry">
            <mxPoint x="-50" y="690" as="sourcePoint" />
            <mxPoint x="-20" y="720" as="targetPoint" />
            <Array as="points">
              <mxPoint y="685" />
              <mxPoint y="709" />
            </Array>
          </mxGeometry>
        </mxCell>
        <mxCell id="f36LNTUcsk6rT417hQk8-349" value="" style="endArrow=none;html=1;rounded=0;entryX=0;entryY=0.5;entryDx=0;entryDy=0;exitX=0.941;exitY=0.519;exitDx=0;exitDy=0;exitPerimeter=0;" parent="1" source="f36LNTUcsk6rT417hQk8-176" target="f36LNTUcsk6rT417hQk8-93" edge="1">
          <mxGeometry width="50" height="50" relative="1" as="geometry">
            <mxPoint x="-50" y="710" as="sourcePoint" />
            <mxPoint x="-110" y="740" as="targetPoint" />
            <Array as="points">
              <mxPoint x="-10" y="705" />
              <mxPoint x="-10" y="780" />
            </Array>
          </mxGeometry>
        </mxCell>
        <mxCell id="f36LNTUcsk6rT417hQk8-350" value="" style="endArrow=none;html=1;rounded=0;entryX=0;entryY=0.5;entryDx=0;entryDy=0;exitX=0.929;exitY=0.503;exitDx=0;exitDy=0;exitPerimeter=0;" parent="1" source="f36LNTUcsk6rT417hQk8-177" target="f36LNTUcsk6rT417hQk8-87" edge="1">
          <mxGeometry width="50" height="50" relative="1" as="geometry">
            <mxPoint x="-50" y="730" as="sourcePoint" />
            <mxPoint x="-150" y="750" as="targetPoint" />
            <Array as="points">
              <mxPoint x="-20" y="725" />
              <mxPoint x="-20" y="850" />
            </Array>
          </mxGeometry>
        </mxCell>
        <mxCell id="f36LNTUcsk6rT417hQk8-351" value="" style="endArrow=none;html=1;rounded=0;entryX=0;entryY=0.5;entryDx=0;entryDy=0;exitX=0.934;exitY=0.496;exitDx=0;exitDy=0;exitPerimeter=0;" parent="1" source="f36LNTUcsk6rT417hQk8-178" target="f36LNTUcsk6rT417hQk8-78" edge="1">
          <mxGeometry width="50" height="50" relative="1" as="geometry">
            <mxPoint x="-60" y="750" as="sourcePoint" />
            <mxPoint y="780" as="targetPoint" />
            <Array as="points">
              <mxPoint x="-30" y="745" />
              <mxPoint x="-30" y="920" />
            </Array>
          </mxGeometry>
        </mxCell>
        <mxCell id="IwBVZNgAtHDTUKfrDfSh-25" value="" style="group" vertex="1" connectable="0" parent="1">
          <mxGeometry x="480" y="340" width="15" height="20" as="geometry" />
        </mxCell>
        <mxCell id="IwBVZNgAtHDTUKfrDfSh-26" value="" style="endArrow=none;html=1;rounded=0;entryX=0;entryY=0.75;entryDx=0;entryDy=0;" edge="1" parent="IwBVZNgAtHDTUKfrDfSh-25">
          <mxGeometry width="50" height="50" relative="1" as="geometry">
            <mxPoint x="15" y="10" as="sourcePoint" />
            <mxPoint as="targetPoint" />
          </mxGeometry>
        </mxCell>
        <mxCell id="IwBVZNgAtHDTUKfrDfSh-27" value="" style="endArrow=none;html=1;rounded=0;exitX=0;exitY=1;exitDx=0;exitDy=0;" edge="1" parent="IwBVZNgAtHDTUKfrDfSh-25">
          <mxGeometry width="50" height="50" relative="1" as="geometry">
            <mxPoint y="20" as="sourcePoint" />
            <mxPoint x="15" y="10" as="targetPoint" />
          </mxGeometry>
        </mxCell>
        <mxCell id="IwBVZNgAtHDTUKfrDfSh-28" value="" style="group" vertex="1" connectable="0" parent="1">
          <mxGeometry x="580" y="140" width="15" height="20" as="geometry" />
        </mxCell>
        <mxCell id="IwBVZNgAtHDTUKfrDfSh-29" value="" style="endArrow=none;html=1;rounded=0;entryX=0;entryY=0.75;entryDx=0;entryDy=0;" edge="1" parent="IwBVZNgAtHDTUKfrDfSh-28">
          <mxGeometry width="50" height="50" relative="1" as="geometry">
            <mxPoint x="15" y="10" as="sourcePoint" />
            <mxPoint as="targetPoint" />
          </mxGeometry>
        </mxCell>
        <mxCell id="IwBVZNgAtHDTUKfrDfSh-30" value="" style="endArrow=none;html=1;rounded=0;exitX=0;exitY=1;exitDx=0;exitDy=0;" edge="1" parent="IwBVZNgAtHDTUKfrDfSh-28">
          <mxGeometry width="50" height="50" relative="1" as="geometry">
            <mxPoint y="20" as="sourcePoint" />
            <mxPoint x="15" y="10" as="targetPoint" />
          </mxGeometry>
        </mxCell>
        <mxCell id="IwBVZNgAtHDTUKfrDfSh-43" value="" style="endArrow=none;html=1;rounded=0;entryX=0.005;entryY=0.829;entryDx=0;entryDy=0;entryPerimeter=0;" edge="1" parent="1" target="f36LNTUcsk6rT417hQk8-1">
          <mxGeometry width="50" height="50" relative="1" as="geometry">
            <mxPoint x="-260" y="140" as="sourcePoint" />
            <mxPoint x="-190" y="140" as="targetPoint" />
          </mxGeometry>
        </mxCell>
        <mxCell id="IwBVZNgAtHDTUKfrDfSh-44" value="&lt;font color=&quot;#990000&quot;&gt;RST&lt;/font&gt;" style="text;html=1;align=center;verticalAlign=middle;whiteSpace=wrap;rounded=0;fontStyle=1" vertex="1" parent="1">
          <mxGeometry x="-245" y="129.17" width="40" height="10" as="geometry" />
        </mxCell>
        <mxCell id="IwBVZNgAtHDTUKfrDfSh-51" value="" style="group" vertex="1" connectable="0" parent="1">
          <mxGeometry x="55" y="560.63" width="50" height="50" as="geometry" />
        </mxCell>
        <mxCell id="f36LNTUcsk6rT417hQk8-121" value="" style="group;fillColor=#fff2cc;strokeColor=#d6b656;" parent="IwBVZNgAtHDTUKfrDfSh-51" vertex="1" connectable="0">
          <mxGeometry width="50" height="50" as="geometry" />
        </mxCell>
        <mxCell id="f36LNTUcsk6rT417hQk8-122" value="" style="whiteSpace=wrap;html=1;aspect=fixed;fillColor=#fff2cc;strokeColor=#d6b656;" parent="f36LNTUcsk6rT417hQk8-121" vertex="1">
          <mxGeometry width="50" height="50" as="geometry" />
        </mxCell>
        <mxCell id="f36LNTUcsk6rT417hQk8-123" value="D" style="text;html=1;align=center;verticalAlign=middle;whiteSpace=wrap;rounded=0;" parent="f36LNTUcsk6rT417hQk8-121" vertex="1">
          <mxGeometry y="5" width="12" height="10" as="geometry" />
        </mxCell>
        <mxCell id="f36LNTUcsk6rT417hQk8-125" value="CE" style="text;html=1;align=center;verticalAlign=middle;whiteSpace=wrap;rounded=0;" parent="f36LNTUcsk6rT417hQk8-121" vertex="1">
          <mxGeometry y="15" width="20" height="20" as="geometry" />
        </mxCell>
        <mxCell id="f36LNTUcsk6rT417hQk8-126" value="Q" style="text;html=1;align=center;verticalAlign=middle;whiteSpace=wrap;rounded=0;" parent="f36LNTUcsk6rT417hQk8-121" vertex="1">
          <mxGeometry x="30" width="20" height="30" as="geometry" />
        </mxCell>
        <mxCell id="IwBVZNgAtHDTUKfrDfSh-34" value="RST" style="text;html=1;align=center;verticalAlign=middle;whiteSpace=wrap;rounded=0;" vertex="1" parent="f36LNTUcsk6rT417hQk8-121">
          <mxGeometry x="10" y="40" width="40" height="10" as="geometry" />
        </mxCell>
        <mxCell id="IwBVZNgAtHDTUKfrDfSh-5" value="" style="group" vertex="1" connectable="0" parent="IwBVZNgAtHDTUKfrDfSh-51">
          <mxGeometry y="30" width="15" height="20" as="geometry" />
        </mxCell>
        <mxCell id="IwBVZNgAtHDTUKfrDfSh-3" value="" style="endArrow=none;html=1;rounded=0;entryX=0;entryY=0.75;entryDx=0;entryDy=0;" edge="1" parent="IwBVZNgAtHDTUKfrDfSh-5">
          <mxGeometry width="50" height="50" relative="1" as="geometry">
            <mxPoint x="15" y="10" as="sourcePoint" />
            <mxPoint as="targetPoint" />
          </mxGeometry>
        </mxCell>
        <mxCell id="IwBVZNgAtHDTUKfrDfSh-4" value="" style="endArrow=none;html=1;rounded=0;exitX=0;exitY=1;exitDx=0;exitDy=0;" edge="1" parent="IwBVZNgAtHDTUKfrDfSh-5">
          <mxGeometry width="50" height="50" relative="1" as="geometry">
            <mxPoint y="20" as="sourcePoint" />
            <mxPoint x="15" y="10" as="targetPoint" />
          </mxGeometry>
        </mxCell>
        <mxCell id="IwBVZNgAtHDTUKfrDfSh-52" value="" style="group" vertex="1" connectable="0" parent="1">
          <mxGeometry x="55" y="630" width="50" height="50" as="geometry" />
        </mxCell>
        <mxCell id="f36LNTUcsk6rT417hQk8-103" value="" style="group;fillColor=#fff2cc;strokeColor=#d6b656;container=0;" parent="IwBVZNgAtHDTUKfrDfSh-52" vertex="1" connectable="0">
          <mxGeometry width="50" height="50" as="geometry" />
        </mxCell>
        <mxCell id="f36LNTUcsk6rT417hQk8-104" value="" style="whiteSpace=wrap;html=1;aspect=fixed;fillColor=#fff2cc;strokeColor=#d6b656;" parent="IwBVZNgAtHDTUKfrDfSh-52" vertex="1">
          <mxGeometry width="50" height="50" as="geometry" />
        </mxCell>
        <mxCell id="f36LNTUcsk6rT417hQk8-105" value="D" style="text;html=1;align=center;verticalAlign=middle;whiteSpace=wrap;rounded=0;" parent="IwBVZNgAtHDTUKfrDfSh-52" vertex="1">
          <mxGeometry y="5" width="12" height="10" as="geometry" />
        </mxCell>
        <mxCell id="f36LNTUcsk6rT417hQk8-107" value="CE" style="text;html=1;align=center;verticalAlign=middle;whiteSpace=wrap;rounded=0;" parent="IwBVZNgAtHDTUKfrDfSh-52" vertex="1">
          <mxGeometry y="15" width="20" height="20" as="geometry" />
        </mxCell>
        <mxCell id="f36LNTUcsk6rT417hQk8-108" value="Q" style="text;html=1;align=center;verticalAlign=middle;whiteSpace=wrap;rounded=0;" parent="IwBVZNgAtHDTUKfrDfSh-52" vertex="1">
          <mxGeometry x="30" width="20" height="30" as="geometry" />
        </mxCell>
        <mxCell id="IwBVZNgAtHDTUKfrDfSh-9" value="" style="group" vertex="1" connectable="0" parent="IwBVZNgAtHDTUKfrDfSh-52">
          <mxGeometry y="30" width="15" height="20" as="geometry" />
        </mxCell>
        <mxCell id="IwBVZNgAtHDTUKfrDfSh-10" value="" style="endArrow=none;html=1;rounded=0;entryX=0;entryY=0.75;entryDx=0;entryDy=0;" edge="1" parent="IwBVZNgAtHDTUKfrDfSh-9">
          <mxGeometry width="50" height="50" relative="1" as="geometry">
            <mxPoint x="15" y="10" as="sourcePoint" />
            <mxPoint as="targetPoint" />
          </mxGeometry>
        </mxCell>
        <mxCell id="IwBVZNgAtHDTUKfrDfSh-11" value="" style="endArrow=none;html=1;rounded=0;exitX=0;exitY=1;exitDx=0;exitDy=0;" edge="1" parent="IwBVZNgAtHDTUKfrDfSh-9">
          <mxGeometry width="50" height="50" relative="1" as="geometry">
            <mxPoint y="20" as="sourcePoint" />
            <mxPoint x="15" y="10" as="targetPoint" />
          </mxGeometry>
        </mxCell>
        <mxCell id="IwBVZNgAtHDTUKfrDfSh-33" value="RST" style="text;html=1;align=center;verticalAlign=middle;whiteSpace=wrap;rounded=0;" vertex="1" parent="IwBVZNgAtHDTUKfrDfSh-52">
          <mxGeometry x="10" y="39.879999999999995" width="40" height="10" as="geometry" />
        </mxCell>
        <mxCell id="IwBVZNgAtHDTUKfrDfSh-53" value="" style="group" vertex="1" connectable="0" parent="1">
          <mxGeometry x="55" y="699.37" width="50" height="50.629999999999995" as="geometry" />
        </mxCell>
        <mxCell id="f36LNTUcsk6rT417hQk8-98" value="" style="whiteSpace=wrap;html=1;aspect=fixed;fillColor=#fff2cc;strokeColor=#d6b656;" parent="IwBVZNgAtHDTUKfrDfSh-53" vertex="1">
          <mxGeometry width="50" height="50" as="geometry" />
        </mxCell>
        <mxCell id="f36LNTUcsk6rT417hQk8-99" value="D" style="text;html=1;align=center;verticalAlign=middle;whiteSpace=wrap;rounded=0;" parent="IwBVZNgAtHDTUKfrDfSh-53" vertex="1">
          <mxGeometry y="5" width="12" height="10" as="geometry" />
        </mxCell>
        <mxCell id="f36LNTUcsk6rT417hQk8-101" value="CE" style="text;html=1;align=center;verticalAlign=middle;whiteSpace=wrap;rounded=0;" parent="IwBVZNgAtHDTUKfrDfSh-53" vertex="1">
          <mxGeometry y="15" width="20" height="20" as="geometry" />
        </mxCell>
        <mxCell id="f36LNTUcsk6rT417hQk8-102" value="Q" style="text;html=1;align=center;verticalAlign=middle;whiteSpace=wrap;rounded=0;" parent="IwBVZNgAtHDTUKfrDfSh-53" vertex="1">
          <mxGeometry x="30" width="20" height="30" as="geometry" />
        </mxCell>
        <mxCell id="IwBVZNgAtHDTUKfrDfSh-12" value="" style="group" vertex="1" connectable="0" parent="IwBVZNgAtHDTUKfrDfSh-53">
          <mxGeometry y="30" width="15" height="20" as="geometry" />
        </mxCell>
        <mxCell id="IwBVZNgAtHDTUKfrDfSh-13" value="" style="endArrow=none;html=1;rounded=0;entryX=0;entryY=0.75;entryDx=0;entryDy=0;" edge="1" parent="IwBVZNgAtHDTUKfrDfSh-12">
          <mxGeometry width="50" height="50" relative="1" as="geometry">
            <mxPoint x="15" y="10" as="sourcePoint" />
            <mxPoint as="targetPoint" />
          </mxGeometry>
        </mxCell>
        <mxCell id="IwBVZNgAtHDTUKfrDfSh-14" value="" style="endArrow=none;html=1;rounded=0;exitX=0;exitY=1;exitDx=0;exitDy=0;" edge="1" parent="IwBVZNgAtHDTUKfrDfSh-12">
          <mxGeometry width="50" height="50" relative="1" as="geometry">
            <mxPoint y="20" as="sourcePoint" />
            <mxPoint x="15" y="10" as="targetPoint" />
          </mxGeometry>
        </mxCell>
        <mxCell id="IwBVZNgAtHDTUKfrDfSh-32" value="RST" style="text;html=1;align=center;verticalAlign=middle;whiteSpace=wrap;rounded=0;" vertex="1" parent="IwBVZNgAtHDTUKfrDfSh-53">
          <mxGeometry x="10" y="40.629999999999995" width="40" height="10" as="geometry" />
        </mxCell>
        <mxCell id="IwBVZNgAtHDTUKfrDfSh-55" value="" style="endArrow=none;html=1;rounded=0;exitX=0.5;exitY=1;exitDx=0;exitDy=0;" edge="1" parent="1" source="IwBVZNgAtHDTUKfrDfSh-36">
          <mxGeometry width="50" height="50" relative="1" as="geometry">
            <mxPoint x="-225" y="475" as="sourcePoint" />
            <mxPoint x="-230" y="140" as="targetPoint" />
            <Array as="points">
              <mxPoint x="85" y="480" />
              <mxPoint x="-230" y="480" />
            </Array>
          </mxGeometry>
        </mxCell>
        <mxCell id="IwBVZNgAtHDTUKfrDfSh-58" value="" style="shape=ellipse;fillColor=#000000;strokeColor=none;html=1;sketch=0;" vertex="1" parent="1">
          <mxGeometry x="15" y="545" width="10" height="10" as="geometry" />
        </mxCell>
        <mxCell id="IwBVZNgAtHDTUKfrDfSh-59" value="" style="shape=ellipse;fillColor=#000000;strokeColor=none;html=1;sketch=0;" vertex="1" parent="1">
          <mxGeometry x="15" y="615" width="10" height="10" as="geometry" />
        </mxCell>
        <mxCell id="IwBVZNgAtHDTUKfrDfSh-60" value="" style="endArrow=none;html=1;rounded=0;exitX=0.5;exitY=0;exitDx=0;exitDy=0;" edge="1" parent="1" source="IwBVZNgAtHDTUKfrDfSh-58">
          <mxGeometry width="50" height="50" relative="1" as="geometry">
            <mxPoint x="-80" y="640" as="sourcePoint" />
            <mxPoint x="20" y="480" as="targetPoint" />
          </mxGeometry>
        </mxCell>
        <mxCell id="IwBVZNgAtHDTUKfrDfSh-61" value="" style="shape=ellipse;fillColor=#000000;strokeColor=none;html=1;sketch=0;" vertex="1" parent="1">
          <mxGeometry x="15" y="475" width="10" height="10" as="geometry" />
        </mxCell>
        <mxCell id="IwBVZNgAtHDTUKfrDfSh-62" value="" style="endArrow=none;html=1;rounded=0;entryX=0.5;entryY=1;entryDx=0;entryDy=0;exitX=0.5;exitY=0;exitDx=0;exitDy=0;" edge="1" parent="1" source="IwBVZNgAtHDTUKfrDfSh-59" target="IwBVZNgAtHDTUKfrDfSh-58">
          <mxGeometry width="50" height="50" relative="1" as="geometry">
            <mxPoint x="-80" y="670" as="sourcePoint" />
            <mxPoint x="-30" y="620" as="targetPoint" />
          </mxGeometry>
        </mxCell>
        <mxCell id="IwBVZNgAtHDTUKfrDfSh-63" value="" style="shape=ellipse;fillColor=#000000;strokeColor=none;html=1;sketch=0;" vertex="1" parent="1">
          <mxGeometry x="15" y="685" width="10" height="10" as="geometry" />
        </mxCell>
        <mxCell id="IwBVZNgAtHDTUKfrDfSh-64" value="" style="shape=ellipse;fillColor=#000000;strokeColor=none;html=1;sketch=0;" vertex="1" parent="1">
          <mxGeometry x="15" y="755" width="10" height="10" as="geometry" />
        </mxCell>
        <mxCell id="IwBVZNgAtHDTUKfrDfSh-65" value="" style="shape=ellipse;fillColor=#000000;strokeColor=none;html=1;sketch=0;" vertex="1" parent="1">
          <mxGeometry x="15" y="825" width="10" height="10" as="geometry" />
        </mxCell>
        <mxCell id="IwBVZNgAtHDTUKfrDfSh-66" value="" style="endArrow=none;html=1;rounded=0;entryX=0.5;entryY=1;entryDx=0;entryDy=0;exitX=0.5;exitY=0;exitDx=0;exitDy=0;" edge="1" parent="1" source="IwBVZNgAtHDTUKfrDfSh-63" target="IwBVZNgAtHDTUKfrDfSh-59">
          <mxGeometry width="50" height="50" relative="1" as="geometry">
            <mxPoint x="-50" y="700" as="sourcePoint" />
            <mxPoint y="650" as="targetPoint" />
          </mxGeometry>
        </mxCell>
        <mxCell id="IwBVZNgAtHDTUKfrDfSh-67" value="" style="endArrow=none;html=1;rounded=0;entryX=0.5;entryY=1;entryDx=0;entryDy=0;exitX=0.5;exitY=0;exitDx=0;exitDy=0;" edge="1" parent="1" source="IwBVZNgAtHDTUKfrDfSh-64" target="IwBVZNgAtHDTUKfrDfSh-63">
          <mxGeometry width="50" height="50" relative="1" as="geometry">
            <mxPoint x="-50" y="700" as="sourcePoint" />
            <mxPoint y="650" as="targetPoint" />
          </mxGeometry>
        </mxCell>
        <mxCell id="IwBVZNgAtHDTUKfrDfSh-68" value="" style="endArrow=none;html=1;rounded=0;entryX=0.5;entryY=1;entryDx=0;entryDy=0;exitX=0.5;exitY=0;exitDx=0;exitDy=0;" edge="1" parent="1" source="IwBVZNgAtHDTUKfrDfSh-65" target="IwBVZNgAtHDTUKfrDfSh-64">
          <mxGeometry width="50" height="50" relative="1" as="geometry">
            <mxPoint x="-50" y="810" as="sourcePoint" />
            <mxPoint y="760" as="targetPoint" />
          </mxGeometry>
        </mxCell>
        <mxCell id="IwBVZNgAtHDTUKfrDfSh-70" value="" style="shape=ellipse;fillColor=#000000;strokeColor=none;html=1;sketch=0;" vertex="1" parent="1">
          <mxGeometry x="15" y="895" width="10" height="10" as="geometry" />
        </mxCell>
        <mxCell id="IwBVZNgAtHDTUKfrDfSh-71" value="" style="endArrow=none;html=1;rounded=0;entryX=0.5;entryY=1;entryDx=0;entryDy=0;exitX=0.5;exitY=0;exitDx=0;exitDy=0;" edge="1" parent="1" source="IwBVZNgAtHDTUKfrDfSh-70" target="IwBVZNgAtHDTUKfrDfSh-65">
          <mxGeometry width="50" height="50" relative="1" as="geometry">
            <mxPoint x="-50" y="920" as="sourcePoint" />
            <mxPoint y="870" as="targetPoint" />
          </mxGeometry>
        </mxCell>
        <mxCell id="IwBVZNgAtHDTUKfrDfSh-72" value="" style="endArrow=none;html=1;rounded=0;entryX=0.5;entryY=1;entryDx=0;entryDy=0;" edge="1" parent="1" target="IwBVZNgAtHDTUKfrDfSh-70">
          <mxGeometry width="50" height="50" relative="1" as="geometry">
            <mxPoint x="90" y="960" as="sourcePoint" />
            <mxPoint y="870" as="targetPoint" />
            <Array as="points">
              <mxPoint x="90" y="970" />
              <mxPoint x="20" y="970" />
            </Array>
          </mxGeometry>
        </mxCell>
        <mxCell id="IwBVZNgAtHDTUKfrDfSh-74" value="" style="endArrow=none;html=1;rounded=0;entryX=1;entryY=0.5;entryDx=0;entryDy=0;exitX=0.5;exitY=1;exitDx=0;exitDy=0;" edge="1" parent="1" source="IwBVZNgAtHDTUKfrDfSh-35" target="IwBVZNgAtHDTUKfrDfSh-58">
          <mxGeometry width="50" height="50" relative="1" as="geometry">
            <mxPoint x="-40" y="620" as="sourcePoint" />
            <mxPoint x="10" y="570" as="targetPoint" />
            <Array as="points">
              <mxPoint x="85" y="550" />
            </Array>
          </mxGeometry>
        </mxCell>
        <mxCell id="IwBVZNgAtHDTUKfrDfSh-75" value="" style="endArrow=none;html=1;rounded=0;entryX=1;entryY=0.5;entryDx=0;entryDy=0;exitX=0.5;exitY=1;exitDx=0;exitDy=0;" edge="1" parent="1" source="IwBVZNgAtHDTUKfrDfSh-34" target="IwBVZNgAtHDTUKfrDfSh-59">
          <mxGeometry width="50" height="50" relative="1" as="geometry">
            <mxPoint x="-40" y="690" as="sourcePoint" />
            <mxPoint x="10" y="640" as="targetPoint" />
            <Array as="points">
              <mxPoint x="85" y="620" />
            </Array>
          </mxGeometry>
        </mxCell>
        <mxCell id="IwBVZNgAtHDTUKfrDfSh-76" value="" style="endArrow=none;html=1;rounded=0;entryX=1;entryY=0.5;entryDx=0;entryDy=0;exitX=0.5;exitY=1;exitDx=0;exitDy=0;" edge="1" parent="1" source="f36LNTUcsk6rT417hQk8-104" target="IwBVZNgAtHDTUKfrDfSh-63">
          <mxGeometry width="50" height="50" relative="1" as="geometry">
            <mxPoint x="-40" y="750" as="sourcePoint" />
            <mxPoint x="10" y="700" as="targetPoint" />
            <Array as="points">
              <mxPoint x="80" y="690" />
            </Array>
          </mxGeometry>
        </mxCell>
        <mxCell id="IwBVZNgAtHDTUKfrDfSh-77" value="" style="endArrow=none;html=1;rounded=0;entryX=0.5;entryY=1;entryDx=0;entryDy=0;exitX=1;exitY=0.5;exitDx=0;exitDy=0;" edge="1" parent="1" source="IwBVZNgAtHDTUKfrDfSh-70" target="IwBVZNgAtHDTUKfrDfSh-38">
          <mxGeometry width="50" height="50" relative="1" as="geometry">
            <mxPoint x="-40" y="890" as="sourcePoint" />
            <mxPoint x="10" y="840" as="targetPoint" />
            <Array as="points">
              <mxPoint x="85" y="900" />
            </Array>
          </mxGeometry>
        </mxCell>
        <mxCell id="IwBVZNgAtHDTUKfrDfSh-78" value="" style="endArrow=none;html=1;rounded=0;entryX=1;entryY=0.5;entryDx=0;entryDy=0;exitX=0.5;exitY=1;exitDx=0;exitDy=0;" edge="1" parent="1" source="IwBVZNgAtHDTUKfrDfSh-31" target="IwBVZNgAtHDTUKfrDfSh-65">
          <mxGeometry width="50" height="50" relative="1" as="geometry">
            <mxPoint x="-40" y="890" as="sourcePoint" />
            <mxPoint x="10" y="840" as="targetPoint" />
            <Array as="points">
              <mxPoint x="85" y="830" />
            </Array>
          </mxGeometry>
        </mxCell>
        <mxCell id="IwBVZNgAtHDTUKfrDfSh-79" value="" style="endArrow=none;html=1;rounded=0;entryX=1;entryY=0.5;entryDx=0;entryDy=0;exitX=0.5;exitY=1;exitDx=0;exitDy=0;" edge="1" parent="1" source="IwBVZNgAtHDTUKfrDfSh-32" target="IwBVZNgAtHDTUKfrDfSh-64">
          <mxGeometry width="50" height="50" relative="1" as="geometry">
            <mxPoint x="-40" y="780" as="sourcePoint" />
            <mxPoint x="10" y="730" as="targetPoint" />
            <Array as="points">
              <mxPoint x="85" y="760" />
            </Array>
          </mxGeometry>
        </mxCell>
      </root>
    </mxGraphModel>
  </diagram>
</mxfile>
